<?xml version="1.0" standalone="no"?>
<!DOCTYPE svg PUBLIC "-//W3C//DTD SVG 1.1//EN" "http://www.w3.org/Graphics/SVG/1.1/DTD/svg11.dtd" >
<!--
2013-9-30: Created.
-->
<svg>
<metadata>
Created by iconfont
</metadata>
<defs>

<font id="iconfont" horiz-adv-x="1024" >
  <font-face
    font-family="iconfont"
    font-weight="500"
    font-stretch="normal"
    units-per-em="1024"
    ascent="896"
    descent="-128"
  />
    <missing-glyph />
    
    <glyph glyph-name="hongpingbanzhuanhuan" unicode="&#983051;" d="M125.896704 481.685248c-45.371392-8.449024-130.18112-54.083584-126.388224-166.576128 0.600064-17.99168 15.361024-32.151552 33.202176-32.151552 0.375808 0 0.789504 0 1.165312 0.037888 18.328576 0.638976 32.751616 16.001024 32.11264 34.368512-2.741248 81.204224 64.41472 97.352704 72.302592 98.968576 17.916928 3.454976 29.7472 20.770816 26.404864 38.724608C161.353728 473.160448 143.850496 485.027584 125.896704 481.685248zM1024.777216 521.010944C1005.133824 635.60576 910.595072 675.945216 863.381504 681.24032c-18.02752 1.990656-34.70336-11.117568-36.769792-29.333504-2.026496-18.253824 11.117568-34.743296 29.372416-36.770816 0.826368-0.11264 87.02464-10.855424 103.252992-105.35424 2.779136-16.190464 16.826368-27.643904 32.750592-27.643904 1.839104 0 3.757056 0.149504 5.634048 0.488448C1015.762944 485.742336 1027.894272 502.906624 1024.777216 521.010944zM760.170496 488.860416c-13.297664 0-26.330112-4.283392-37.110784-11.943936-10.329088 29.55776-36.732928 45.258752-61.935616 45.258752-17.728512 0-34.853888-7.4752-47.024128-20.583424-0.676864-0.713728-1.352704-1.429504-1.99168-2.21696-12.919808 16.150528-31.663104 24.564736-49.803264 24.564736-11.756544 0-23.24992-3.34336-33.2032-9.427968l0 100.471808c0 41.578496-24.827904 66.482176-66.369536 66.482176-39.662592 0-66.330624-26.742784-66.330624-66.482176l0-305.62304c-27.229184 14.124032-60.882944 27.418624-91.231232 27.418624-29.85984 0-54.386688-12.770304-68.99712-35.982336-44.28288-70.086656 27.155456-115.27168 79.40096-148.28544 56.001536-35.382272 113.917952-72.00256 113.917952-135.0656l0-66.330624 0-33.276928 33.240064 0 297.699328 0 33.278976 0 0 33.276928 0 61.935616c6.647808 24.71424 33.088512 125.975552 33.088512 170.409984L826.799104 415.807232C826.799104 463.244032 792.507392 488.860416 760.170496 488.860416zM793.560064 183.462656c0-44.848128-33.129472-166.014976-33.129472-166.014976l0-66.330624L462.732288-48.882944l0 66.330624c0 154.40896-254.541824 176.830464-198.465536 265.583616 9.39008 14.836736 24.076288 20.470784 40.90368 20.470784 51.982336 0 124.510208-53.710848 124.510208-53.710848s0 302.769152 0 365.193216c0 26.404864 18.141184 33.204224 33.051648 33.204224 17.99168 0 33.128448-5.108736 33.128448-33.204224 0-51.382272 0-232.343552 0-232.343552l33.053696 0L528.914432 449.009408c0 27.606016 16.713728 41.653248 33.390592 41.653248 16.449536 0 32.790528-13.709312 32.790528-41.653248 0-47.251456 0-66.368512 0-66.368512l33.0496 0L628.145152 449.009408c0 26.628096 16.451584 39.888896 32.97792 39.888896 16.603136 0 33.2032-13.374464 33.2032-39.888896 0-44.735488 0-66.368512 0-66.368512L727.380992 382.640896l0 33.166336c0 26.667008 16.37376 39.775232 32.789504 39.775232 16.636928 0 33.389568-13.40928 33.389568-39.775232C793.560064 378.585856 793.560064 228.269824 793.560064 183.462656z"  horiz-adv-x="1024" />

    
    <glyph glyph-name="diannaoduan" unicode="&#58909;" d="M904.96 698.656 119.04 698.656c-36.16 0-65.472-29.312-65.472-65.472l0-556.672c0-36.16 29.312-65.472 65.472-65.472l302.336 0c-51.84-28.608-89.472-65.472-89.472-65.472-27.136 0-49.152-14.656-49.152-32.768 0-18.112 22.016-32.768 49.152-32.768l392.96 0c27.136 0 49.152 14.656 49.152 32.768 0 18.112-22.016 32.768-49.152 32.768 0 0-36.608 36.928-87.36 65.472l267.456 0c36.16 0 65.472 29.312 65.472 65.472L970.432 633.184C970.432 669.344 941.12 698.656 904.96 698.656zM904.96 174.688c0-36.16-29.312-65.472-65.472-65.472L184.512 109.216c-36.16 0-65.472 29.312-65.472 65.472l0 392.96c0 36.16 29.312 65.472 65.472 65.472l654.912 0c36.16 0 65.472-29.312 65.472-65.472L904.896 174.688z"  horiz-adv-x="1024" />

    
    <glyph glyph-name="cai" unicode="&#58888;" d="M587.43404 805.888815l107.327424-28.620851c2.346441 0 3.577478-4.807493 3.577478-14.309914l-14.309914-28.620851 0-143.103232 125.214816 3.577478 57.241702 57.241702 78.706573-64.396659c2.346441-4.807493 1.172709-8.384971-3.577478-10.732435l-257.585613-7.154957-3.577478-336.291163 3.577478-125.214816c4.751211-62.049195-40.584324-116.829845-135.949298-164.568103-4.807493-2.347464-7.154957-2.347464-7.154957 0-2.403746 2.403746-2.403746 5.981225 0 10.732435 4.752234 45.334511-5.981225 73.955362-32.19833 85.86153-4.807493 4.752234-3.577478 5.924943 3.577478 3.577478 57.241702 0 82.285075 11.907191 75.130118 35.775808L587.43404 448.130735C460.988186 281.15991 294.071595 134.479199 86.572728 8.089627c-4.807493-2.347464-8.384971-1.173732-10.732435 3.577478 0 2.403746 1.173732 5.981225 3.577478 10.732435 171.724083 119.234615 326.733483 300.515355 465.084481 543.791054l-300.516378-10.732435c-33.428344-2.403746-65.62565-5.981225-96.594989-10.732435l-28.620851 28.620851 468.662982 14.309914 0 32.19833c0 97.768721-1.231037 157.413146-3.578502 178.87904C586.201979 805.888815 587.43404 808.23628 587.43404 805.888815z"  horiz-adv-x="1024" />

    
    <glyph glyph-name="huidingbu" unicode="&#58884;" d="M825.568 256.672l-287.392 289.28C531.808 552.352 523.488 555.424 515.2 555.36 514.08 555.456 513.12 556 512 556c-4.672 0-9.024-1.088-13.024-2.88-4.032-1.536-7.872-3.872-11.136-7.136l-259.328-258.88c-12.512-12.48-12.544-32.736-0.032-45.248 6.24-6.272 14.432-9.408 22.656-9.408 8.192 0 16.352 3.136 22.624 9.344L480 447.712 480-116c0-17.696 14.336-32 32-32s32 14.304 32 32L544 449.28l236.192-237.728c6.24-6.272 14.496-9.44 22.688-9.44s16.32 3.104 22.56 9.312C838.016 223.872 838.048 244.16 825.568 256.672zM864 620 160 620C142.336 620 128 634.336 128 652s14.336 32 32 32l704 0c17.696 0 32-14.336 32-32S881.696 620 864 620z"  horiz-adv-x="1024" />

    
    <glyph glyph-name="12gouwuicon" unicode="&#58923;" d="M896 832h-768l-128-896h1024l-128 896zM95.979 0.031l-22.183-0.007 109.711 767.976h656.986l109.714-767.997-854.228 0.028zM704 544v-54.156c0-54.375-20.272-105.371-57.083-143.593-36.176-37.564-84.090-58.251-134.917-58.251s-98.742 20.688-134.917 58.251c-36.811 38.222-57.083 89.218-57.083 143.593v118.156h-64v-118.156c0-146.844 114.625-265.844 256-265.844s256 119 256 265.844v118.156h-64v-64z"  horiz-adv-x="1024" />

    
    <glyph glyph-name="daishouhuo" unicode="&#58893;" d="M1072.9472 870.4 159.2064 870.4C87.3728 870.4 28.9536 810.496 28.9536 736.8704l0-731.3408C28.9536-68.096 87.3728-128 159.2064-128l913.7408 0C1144.7808-128 1203.2-68.096 1203.2 5.5296L1203.2 736.8704C1203.2 810.496 1144.7808 870.4 1072.9472 870.4zM476.5184 819.2l256 0 0-442.7008c0-7.9616-3.0976-14.2592-6.1184-16.896-1.8176-1.6128-2.4576-1.1776-3.072-0.896l-120.6272 61.8496-117.8624-62.1312c-0.4096 0-1.2288 0.3328-2.1504 1.1264-3.072 2.6624-6.1696 8.9344-6.1696 16.9472L476.5184 819.2zM1072.9472-76.8 159.2064-76.8c-43.5968 0-79.0528 36.9152-79.0528 82.3296L80.1536 512l298.1376 0 0 0 0 0c14.1568 0 25.6 11.4688 25.6 25.6 0 14.1312-11.4432 25.6-25.6 25.6l0 0 0 0L80.1536 563.2 80.1536 736.8704C80.1536 782.2848 115.6096 819.2 159.2064 819.2l266.1376 0 0-442.7008c0-21.888 8.9088-42.7008 23.9872-55.7568 17.3056-14.7968 41.6512-17.3824 60.3648-7.2704l93.3632 49.3824 96.8192-49.6384c7.808-4.0448 16.1024-6.016 24.3712-6.016 12.7232 0 25.3696 4.736 35.8912 13.9264 14.7456 12.9792 23.5776 33.664 23.5776 55.3984L783.7184 819.2l289.2288 0C1116.544 819.2 1152 782.2848 1152 736.8704L1152 563.2 850.5088 563.2l0 0 0 0c-14.1568 0-25.6-11.4688-25.6-25.6 0-14.1312 11.4432-25.6 25.6-25.6l0 0 0 0L1152 512l0-506.4704C1152-39.8848 1116.544-76.8 1072.9472-76.8z"  horiz-adv-x="1229" />

    
    <glyph glyph-name="yaoqing" unicode="&#59042;" d="M721.048574 294.321396c11.821326-9.398434 30.739826-4.698609 40.195427 9.402083 4.731449 7.050954 4.731449 14.097044 4.731449 21.147998-2.365725 7.050954-7.098391 14.101909-11.824975 18.800518-16.549126 9.398434-33.101902 21.147998-52.011888 28.198952 23.637786 23.499127 42.556286 49.350599 54.377612 79.900681 14.187051 32.897561 21.280576 68.146252 21.280576 105.747288 0 145.701885-118.21934 263.203601-264.809132 263.203601-146.588576 0-262.442191-119.849196-262.442191-265.549865 0-70.498597 28.374101-136.303451 78.023913-185.649185C174.887266 299.020005 75.586426 146.273247 75.586426-22.926549c0-16.454254 11.821326-28.203818 28.374101-28.203818 16.549126 0 28.369236 11.749563 28.369236 28.203818 0 157.445367 99.30084 298.447427 245.889415 352.496635 82.757795-49.345734 189.150944-46.998254 269.536932 0C673.764487 320.172868 699.772863 308.423305 721.048574 294.321396L721.048574 294.321396zM512.987644 350.72295c-113.486674 0-205.698854 91.65146-205.698854 204.449702s92.21218 204.449702 205.698854 204.449702c113.492756 0 205.698854-91.65146 205.698854-204.449702 0-28.198952-4.726584-56.401554-16.54791-82.248161-9.45925-23.505209-26.008376-44.65199-44.926876-63.452508C619.386875 371.870948 567.365257 350.72295 512.987644 350.72295L512.987644 350.72295zM512.987644 350.72295M917.273582 132.774629l-93.413895 0 0 93.413895c0 17.199853-13.940139 31.139992-31.133911 31.139992-17.199853 0-31.139992-13.940139-31.139992-31.139992l0-93.413895-93.413895 0c-17.194987 0-31.133911-13.938923-31.133911-31.133911 0-17.199853 13.938923-31.139992 31.133911-31.139992L761.585784 70.500726l0-93.413895c0-17.193771 13.940139-31.133911 31.139992-31.133911 17.193771 0 31.133911 13.940139 31.133911 31.133911l0 93.413895L917.273582 70.500726c17.199853 0 31.139992 13.940139 31.139992 31.139992C948.413574 118.835705 934.473435 132.774629 917.273582 132.774629L917.273582 132.774629zM917.273582 132.774629"  horiz-adv-x="1024" />

    
    <glyph glyph-name="gouwuche" unicode="&#59110;" d="M1024.682667 54.954667c-24.348444 0-48.014222-9.671111-65.194667-26.737778-17.123556-17.009778-26.908444-40.675556-26.908444-64.739556 0-24.064 9.784889-47.672889 26.908444-64.739555a92.899556 92.899556 0 0 1 130.275556 0c17.123556 17.066667 27.079111 40.675556 27.079111 64.739555a91.989333 91.989333 0 0 1-92.16 91.477334m-508.643556 0c-24.234667 0-48.071111-9.671111-65.194667-26.737778-17.123556-17.009778-26.908444-40.675556-26.908444-64.739556 0-24.064 9.784889-47.672889 26.908444-64.739555a92.899556 92.899556 0 0 1 130.275556 0c17.123556 17.066667 27.022222 40.675556 27.022222 64.739555a91.989333 91.989333 0 0 1-92.103111 91.477334m785.294222 610.417777l-151.495111-478.72c-10.695111-33.564444-41.642667-55.978667-77.141333-55.978666H487.196444c-33.564444 0-66.332444 20.764444-78.051555 52.053333L186.083556 782.620444H56.718222A56.832 56.832 0 0 0 0 839.281778 56.888889 56.888889 0 0 0 56.718222 896h168.504889c23.552 0 44.828444-16.213333 53.191111-38.115556l231.367111-613.831111h539.022223l121.173333 382.634667H501.76a56.832 56.832 0 0 0-56.661333 56.718222 56.888889 56.888889 0 0 0 56.661333 56.718222h745.415111a57.856 57.856 0 0 0 54.044445-74.695111"  horiz-adv-x="1308" />

    
    <glyph glyph-name="iocn6" unicode="&#58885;" d="M890.905214-126.961344 132.136971-126.961344c-72.848145 0-132.115993 59.268872-132.115993 132.115993L0.020978 763.921869c0 72.847122 59.267848 132.078131 132.115993 132.078131l584.250534 0 0.272199-264.61982 306.323641 0 0-626.225531C1022.983345-67.692473 963.792245-126.961344 890.905214-126.961344zM39.635207 591.807906l0-586.653257c0-50.989301 41.511439-92.502787 92.501764-92.502787l758.768243 0c50.990325 0 92.461855 41.512463 92.461855 92.502787l0 586.610278L677.120177 591.764927 676.811138 856.384747 132.136971 856.384747c-50.989301 0-92.501764-41.473577-92.501764-92.462878L39.635207 591.807906M677.075151 631.38018 39.635207 631.38018l0-39.615253 637.489062 0L677.075151 631.38018zM1022.983345 44.576497 711.552383 44.576497c-72.886007 0-132.117017 59.228963-132.117017 132.076084L579.435367 293.75872c0 72.848145 59.231009 132.115993 132.117017 132.115993l311.430962 0L1022.983345 44.576497zM711.552383 386.25946c-50.989301 0-92.501764-41.511439-92.501764-92.50074L619.05062 176.653605c0-50.989301 41.511439-92.461855 92.501764-92.461855l271.815709 0L983.368092 386.25946 711.552383 386.25946zM878.835318 151.81694 718.670501 151.81694 718.670501 311.942871l160.16584 0L878.836341 151.81694zM758.286778 191.430146l80.933287 0 0 80.895425-80.933287 0L758.286778 191.430146z"  horiz-adv-x="1024" />

    
    <glyph glyph-name="shouye" unicode="&#59054;" d="M969.6 393.6l-118.4 112L528 806.4c-9.6 9.6-22.4 9.6-32 0L182.4 508.8l-9.6-9.6-118.4-112c-9.6-9.6-9.6-22.4 0-32s22.4-9.6 32 0l83.2 80v-393.6c0-48 41.6-89.6 92.8-89.6h83.2c38.4 0 70.4 28.8 70.4 67.2V236.8h198.4v-217.6c0-35.2 32-67.2 70.4-67.2H768c51.2 0 92.8 38.4 92.8 89.6V438.4l80-73.6c9.6-9.6 22.4-9.6 32 0 6.4 6.4 6.4 19.2-3.2 28.8z m-160-355.2c0-25.6-19.2-44.8-44.8-44.8h-83.2c-12.8 0-22.4 9.6-22.4 22.4V256c0 12.8-9.6 22.4-22.4 22.4H393.6c-12.8 0-22.4-9.6-22.4-22.4v-240c0-12.8-9.6-22.4-22.4-22.4h-83.2c-25.6 0-44.8 19.2-44.8 44.8V476.8l294.4 281.6 294.4-281.6v-438.4z"  horiz-adv-x="1024" />

    
    <glyph glyph-name="xianxiamendian" unicode="&#59188;" d="M799.4 330.8c-59.9 0-113.8 31.6-143.2 82.1-29.4-50.6-83.3-82.1-143.2-82.1-59.9 0-113.8 31.6-143.2 82.1-29.4-50.6-83.3-82.1-143.2-82.1-27.6 0-54.9 6.9-79 20C83.4 385.7 51.5 465 71.8 539.3l64.4 193.5c9.3 34.1 41.5 58.7 78.1 58.7h597.5c36.6 0 68.9-24.6 78.5-59.9l63.7-191c20.7-75.5-11.3-154.8-75.5-189.7-24.1-13.2-51.5-20.1-79.1-20.1zM656.2 472.9c13.8 0 26-8.4 31.2-21.3 18.5-45.9 62.4-75.6 112-75.6 20.1 0 40 5 57.5 14.6 46.1 25 68.7 82.6 53.9 137l-63.7 191.1c-4.6 16.9-19 27.9-35.3 27.9H214.3c-16.3 0-30.7-11-34.9-26.7L115 526.3c-14.5-53.2 8.2-110.8 54.2-135.8 17.5-9.5 37.4-14.6 57.5-14.6 49.7 0 93.7 29.8 112.1 76 5.2 12.9 17.4 21.3 31.1 21.3s25.9-8.3 31.1-21.3c18.4-46.2 62.4-76 112.1-76 49.5 0 93.5 29.7 112 75.6 5.1 13 17.4 21.4 31.1 21.4z m-10.6-38.2z m21.3 0.1zM774.9-12.8H251.2c-41.7 0-75.7 36.1-75.7 80.5V353.4c0 12.5 10.1 22.6 22.6 22.6 12.5 0 22.6-10.1 22.6-22.6v-285.7c0-19.5 13.7-35.4 30.6-35.4H775c16.9 0 30.6 15.9 30.6 35.4V353.4c0 12.5 10.1 22.6 22.6 22.6s22.6-10.1 22.6-22.6v-285.7c-0.2-44.4-34.2-80.5-75.9-80.5zM656.2 130.4H369.9c-12.5 0-22.6 10.1-22.6 22.6s10.1 22.6 22.6 22.6h286.4c12.5 0 22.6-10.1 22.6-22.6s-10.2-22.6-22.7-22.6z"  horiz-adv-x="1024" />

    
    <glyph glyph-name="weibiaoti--" unicode="&#58969;" d="M913.92 19.072l0.096 0.128-198.128 189.568a354.464 354.464 0 0 1 93.232 255.472C800.768 660.48 634.912 812.736 438.672 804.4 242.416 796.048 90.176 630.176 98.528 433.984c8.336-196.272 174.192-348.512 370.432-340.192a353.872 353.872 0 0 1 200.56 72.672L870.704-26.08l0.032 0.016c14.512-13.36 35.52-14.368 47.328-2.016 11.792 12.336 9.872 33.296-4.144 47.152z m-447.664 137.344c-161.392-6.848-298.288 118.864-305.184 280.24-6.848 161.376 118.848 298.32 280.256 305.184 161.408 6.848 298.336-118.88 305.168-280.256 6.928-161.376-118.832-298.256-280.24-305.168z"  horiz-adv-x="1024" />

    
    <glyph glyph-name="app-discover-a" unicode="&#58971;" d="M512-9.317c-216.876 0-393.317 176.441-393.317 393.317s176.441 393.317 393.317 393.317 393.317-176.441 393.317-393.317-176.439-393.317-393.317-393.317zM512 743.844c-198.415 0-359.844-161.428-359.844-359.844s161.428-359.844 359.844-359.844 359.843 161.428 359.843 359.844-161.427 359.844-359.843 359.844zM466.311 429.683l-167.544-258.937 258.928 167.563 167.545 258.938-258.929-167.564zM512.025 353.536c-16.847 0-30.469 13.643-30.469 30.452 0 16.827 13.622 30.471 30.469 30.471 16.825 0 30.447-13.644 30.447-30.471 0-16.829-13.622-30.452-30.447-30.452z"  horiz-adv-x="1024" />

    
    <glyph glyph-name="qq" unicode="&#58883;" d="M564.071429 896C281.446429 896 52.071429 666.625 52.071429 384S281.446429-128 564.071429-128s512 229.375 512 512S846.696429 896 564.071429 896z m-1-989.5c-263.875 0-477.875 214-477.875 477.875C85.196429 648.25 299.196429 862.25 563.071429 862.25c263.875 0 477.875-214 477.875-477.875 0-263.875-214-477.875-477.875-477.875zM227.571429 360.5c-28-65.875-32.5-128.75-10.25-140.375 15.375-8.25 39.625 10.25 62.5 44 8.875-36.875 31.375-70 63.125-97-33.5-12.25-55-32.375-55-55.25 0-37.5 59-67.625 131.75-67.625 65.5 0 119.75 24.625 130 57h15.75c10.25-32.375 64.5-57 130-57 72.75 0 131.75 30.375 131.75 67.625 0 22.875-21.875 43-55 55.25 31.75 26.625 53.875 60.125 63.125 97 22.875-33.75 46.75-52.25 62.5-44 22.5 11.625 18.125 74.75-9.875 140.25-21.875 51.875-51.875 89.75-74.75 98.25 0.375 3.375 0.375 6.875 0.375 9.875 0 20.125-5.5 38.625-15 53.625v3.375c0 9.25-2 17.75-5.75 25.25C786.946429 685.375 699.571429 792.25 557.946429 792.25c-141.625 0-229.375-106.875-234.875-241.375-3.75-7.5-5.75-16-5.75-25.25v-3.375c-9.5-15-15-33.5-15-53.625 0-3.375 0-6.875 0.375-9.875-23.25-8.875-53.375-46.75-75.125-98.25z"  horiz-adv-x="1497" />

    
    <glyph glyph-name="shouhuodizhi" unicode="&#59034;" d="M42.3701-127.986667c-22.277246 0-37.663545 29.952618-42.3701 40.45459V271.023808c15.708514 12.881915 56.123105 43.283411 120.47268 73.544911 19.992856 9.406442 32.52589 11.379728 39.519056 11.379728 10.748632 0 13.230795-4.357674 14.039665-5.786528 3.802131-6.684285 3.133259-19.401759 0.146663-28.101552-11.721942-11.288619-70.464985-31.859239-119.646032-44.454494l-16.190725-4.14879v-339.940774l25.506058 6.664286c43.81451 11.439727 259.644913 68.162817 294.990736 84.04466 30.177057-0.117775 162.540564-53.983156 233.692199-82.931354 49.994362-20.348403 68.169484-27.60823 75.744858-29.194858 1.706626-0.353325 3.466584-0.526654 5.386538-0.526654h0.006667c6.908724 0.004444 23.092782 0.008889 164.484962 57.147524 68.382812 27.63934 133.799028 55.638672 134.452346 55.916443l13.410791 5.742085v344.236227l-29.363743-14.92631c-15.226303-7.722038-60.169675-27.77267-84.906862-27.77267a32.17701 32.17701 0 0 0-3.195479 0.139996c-0.893312 8.224248 1.753291 25.972713 6.333182 43.00564 43.285633 13.979666 116.070563 31.697021 149.011998 31.697022h0.446656c-0.024444-14.886311-0.068887-38.819073-0.122219-68.202817-0.175551-95.726604-0.457767-254.262819-0.477767-340.880751-11.87305-9.975317-57.545293-34.643617-166.802684-72.227165-88.000122-30.263722-165.264944-50.598792-182.23565-50.598792 0 0-0.291104 0-0.417768 0.011111-24.148312 3.15548-206.312853 69.376122-315.421359 110.368476l-6.68873 2.506607-6.664285-2.575494c-2.395498-0.928867-240.134268-92.960003-292.524128-111.208456-3.671023-1.288858-7.246494-1.937732-10.617524-1.937732zM513.885511 896c-162.056131 0-293.426329-128.996921-293.426329-288.122011 0-182.362313 186.399995-364.720182 262.067077-431.238595 21.352824-18.772885 41.27457-18.863994 62.994052 0.23555 75.844856 66.722852 261.793751 248.862948 261.793751 430.996379C807.311839 767.003079 675.941642 896 513.885511 896z m5.215431-689.087995c-2.439942-2.148838-4.188789-3.304366-5.248764-3.899907-1.008865 0.579986-2.648826 1.673293-4.915438 3.668802-33.841414 29.745957-98.777642 90.835609-153.525224 165.738265-63.005163 86.204609-94.951067 165.422718-94.951067 235.456602 0 136.816734 113.683953 248.122966 253.427284 248.122966 139.741109 0 253.427284-111.306232 253.427283-248.122966 0-69.95833-31.881461-149.089774-94.762182-235.189941-54.683139-74.889323-119.614922-136.010087-153.451892-165.773821zM513.885511 773.002936c-66.273973 0-119.999358-53.727606-119.999358-119.999358 0-66.273973 53.725384-119.999358 119.999358-119.999357 66.271751 0 119.999358 53.725384 119.999357 119.999357 0 66.271751-53.727606 119.999358-119.999357 119.999358z m0-195.555332c-41.66345 0-75.555974 33.892524-75.555975 75.555974 0 41.661228 33.892524 75.553752 75.555975 75.553752 41.659006 0 75.55153-33.892524 75.551529-75.553752 0-41.66345-33.88808-75.555974-75.551529-75.555974z"  horiz-adv-x="1024" />

    
    <glyph glyph-name="dianchi" unicode="&#59320;" d="M561.828403 571.087398L321.080199 358.181708H429.922281l-91.650023-151.267794L579.03582 419.81858H470.193738L561.828403 571.087398z m351.031917-45.520917h-45.519894V616.60934c0 25.144576-20.380437 45.521942-45.522966 45.521941H108.644472c-25.142528 0-45.520918-20.377366-45.520918-45.521941v-455.217368c0-25.142528 20.37839-45.521942 45.520918-45.521941h713.172988c25.142528 0 45.522965 20.379414 45.522966 45.521941v91.043883h45.519894c25.143552 0 45.522965 20.37839 45.522965 45.520918V480.043515c0 25.143552-20.379414 45.522965-45.522965 45.522966zM806.645528 199.326923c0-12.564097-10.197898-22.759947-22.760971-22.759947H146.579423c-12.578431 0-22.759947 10.196874-22.759947 22.759947V578.674388c0 12.564097 10.181516 22.759947 22.759947 22.759947h637.30411c12.564097 0 22.760971-10.19585 22.760971-22.759947v-379.347465h0.001024z"  horiz-adv-x="1024" />

    
    <glyph glyph-name="qiandao" unicode="&#58882;" d="M102.46394 277.379956h819.07212v-326.733687H102.46394zM883.811427 828.06369h-88.397128v-70.973462c0-27.014674-24.936622-48.914143-55.787699-48.914143-30.691227 0-55.787699 21.899469-55.787699 48.914143V828.06369h-343.677802v-70.973462c0-27.014674-25.096472-48.914143-55.787699-48.914143S228.585701 730.235404 228.585701 757.090228V828.06369H140.188573C80.564471 828.06369 31.970028 785.383703 31.970028 733.112707v-766.161724c0-52.270996 48.594443-94.950983 108.218545-94.950983h743.622854c59.783953 0 108.218545 42.679988 108.218545 94.950983V733.112707c0 52.270996-48.594443 94.950983-108.218545 94.950983z m37.724633-846.726194c0-16.944115-16.944115-30.691227-37.724633-30.691227H140.188573c-20.940368 0-37.724633 13.747112-37.724633 30.691227V559.195754h819.07212v-577.858258z m-636.203559 745.541055c14.706213 0 26.694973 9.111458 26.694973 20.460818V875.539182c0 11.34936-11.82891 20.460818-26.694973 20.460818s-26.694973-9.111458-26.694974-20.460818V747.339369c0-11.34936 11.988761-20.460818 26.694974-20.460818z m453.334998 0c14.706213 0 26.694973 9.111458 26.694974 20.460818V875.539182c0 11.34936-11.988761 20.460818-26.694974 20.460818s-26.694973-9.111458-26.694973-20.460818V747.339369c0-11.34936 11.988761-20.460818 26.694973-20.460818zM334.086794 338.12301h-141.467375c-12.947861 0-23.338121 10.550109-23.33812 23.33812v21.579769c0 12.947861 10.550109 23.338121 23.33812 23.338121H334.086794c12.947861 0 23.338121-10.550109 23.33812-23.338121v-21.579769c0-12.788011-10.550109-23.338121-23.33812-23.33812zM334.086794 124.083672h-141.467375c-12.947861 0-23.338121 10.550109-23.33812 23.33812v21.579769c0 12.947861 10.550109 23.338121 23.33812 23.338121H334.086794c12.947861 0 23.338121-10.550109 23.33812-23.338121v-21.579769c0-12.788011-10.550109-23.338121-23.33812-23.33812zM582.813612 338.12301H441.186388c-12.947861 0-23.338121 10.550109-23.338121 23.33812v21.579769c0 12.947861 10.550109 23.338121 23.338121 23.338121h141.467374c12.947861 0 23.338121-10.550109 23.338121-23.338121v-21.579769c0.15985-12.788011-10.390259-23.338121-23.178271-23.33812zM582.813612 124.083672H441.186388c-12.947861 0-23.338121 10.550109-23.338121 23.33812v21.579769c0 12.947861 10.550109 23.338121 23.338121 23.338121h141.467374c12.947861 0 23.338121-10.550109 23.338121-23.338121v-21.579769c0.15985-12.788011-10.390259-23.338121-23.178271-23.33812zM836.016235 338.12301h-141.467375c-12.947861 0-23.338121 10.550109-23.33812 23.33812v21.579769c0 12.947861 10.550109 23.338121 23.33812 23.338121H836.016235c12.947861 0 23.338121-10.550109 23.33812-23.338121v-21.579769c0.15985-12.788011-10.390259-23.338121-23.33812-23.33812zM836.016235 124.083672h-141.467375c-12.947861 0-23.338121 10.550109-23.33812 23.33812v21.579769c0 12.947861 10.550109 23.338121 23.33812 23.338121H836.016235c12.947861 0 23.338121-10.550109 23.33812-23.338121v-21.579769c0.15985-12.788011-10.390259-23.338121-23.33812-23.33812z"  horiz-adv-x="1024" />

    
    <glyph glyph-name="xiaoxi" unicode="&#58886;" d="M251.623932 36.102564c-1.312821 0-3.063248 0.437607-4.376069 0.875214-4.376068 1.750427-7.001709 6.126496-7.001709 10.940171v88.834188c-88.834188 64.765812-140.034188 157.538462-140.034188 254.687179 0 188.608547 188.608547 342.208547 420.977778 342.208547 231.931624 0 420.977778-153.6 420.977777-342.208547s-188.608547-342.208547-420.977777-342.208547c-72.642735 0-143.97265 15.316239-206.988035 44.198291l-53.825641-53.825641c-3.063248-2.188034-5.688889-3.500855-8.752136-3.500855zM520.752137 720.519658c-224.929915 0-407.849573-147.473504-407.849573-329.080342 0-93.210256 49.449573-182.044444 135.220513-244.622222 3.063248-2.188034 4.813675-5.688889 4.813675-9.189744V51.418803l52.075214 52.075214c3.500855 3.500855 8.752137 4.376068 13.128205 2.188034 61.264957-28.444444 131.282051-43.323077 202.174359-43.323077 224.929915 0 407.849573 147.473504 407.849573 329.080342 0 181.169231-182.919658 329.080342-407.411966 329.080342zM315.076923 384.875214m-50.324786 0a50.324786 50.324786 0 1 1 100.649572 0 50.324786 50.324786 0 1 1-100.649572 0ZM520.752137 384.875214m-50.324787 0a50.324786 50.324786 0 1 1 100.649573 0 50.324786 50.324786 0 1 1-100.649573 0ZM726.42735 384.875214m-50.324786 0a50.324786 50.324786 0 1 1 100.649573 0 50.324786 50.324786 0 1 1-100.649573 0Z"  horiz-adv-x="1030" />

    
    <glyph glyph-name="kehuduan" unicode="&#58887;" d="M725.333333-128H298.666667a128 128 0 0 0-128 128V768a128 128 0 0 0 128 128h426.666666a128 128 0 0 0 128-128v-768a128 128 0 0 0-128-128z m42.666667 896a42.666667 42.666667 0 0 1-42.666667 42.666667H298.666667a42.666667 42.666667 0 0 1-42.666667-42.666667v-768a42.666667 42.666667 0 0 1 42.666667-42.666667h426.666666a42.666667 42.666667 0 0 1 42.666667 42.666667V768zM576 725.333333h-128a21.333333 21.333333 0 1 0 0 42.666667h128a21.333333 21.333333 0 1 0 0-42.666667zM469.333333 0a42.666667 42.666667 0 1 0 85.333334 0 42.666667 42.666667 0 0 0-85.333334 0z"  horiz-adv-x="1024" />

    
    <glyph glyph-name="gonggao" unicode="&#58908;" d="M837.12-126.464H173.056c-60.416 0-109.568 49.664-109.568 111.104V782.848C63.488 844.8 113.152 894.976 174.592 894.976h551.424c60.416 0 109.568-49.664 109.568-110.592v-715.776h-60.416V783.872c0 27.136-22.016 49.664-49.152 49.664H174.592c-27.648 0-50.688-23.04-50.688-51.2V-15.36c0-27.136 22.016-49.664 49.152-49.664h663.552c27.136 0 49.152 22.016 49.152 49.664V671.232h60.416V-15.36c0.512-61.44-48.64-111.104-109.056-111.104zM681.984 157.184H232.96c-15.36 0-28.16 12.288-28.16 27.648s12.8 27.648 28.16 27.648h449.024c15.36 0 28.16-12.288 28.16-27.648 0-15.36-12.8-27.648-28.16-27.648M681.984 335.872H232.96c-15.36 0-28.16 12.288-28.16 27.648s12.8 27.648 28.16 27.648h449.024c15.36 0 28.16-12.288 28.16-27.648 0-14.848-12.8-27.648-28.16-27.648M710.144 542.72c0-15.36-12.8-27.648-28.16-27.648H232.96c-15.36 0-28.16 12.288-28.16 27.648s12.8 27.648 28.16 27.648h449.024c15.36 0 28.16-12.288 28.16-27.648"  horiz-adv-x="1024" />

    
    <glyph glyph-name="shandian" unicode="&#58894;" d="M434.2784 801.553067h282.9312l-141.448533-319.863467h168.448L311.3984-33.553067l134.382933 393.352534-134.382933 2.286933z"  horiz-adv-x="1024" />

    
    <glyph glyph-name="wenti" unicode="&#59135;" d="M512.009721-104.398466c-270.14772 0-488.405629 219.011062-488.405629 488.405629 0 270.14158 219.022319 488.391303 488.405629 488.391303 270.14158 0 488.38414-219.018226 488.38414-488.391303 0-270.154883-219.013109-488.405629-488.38414-488.405629z m0.016373 930.262082c-244.044202 0-441.882036-197.837834-441.882036-441.882036s197.837834-441.882036 441.882036-441.882035S953.90813 139.937378 953.90813 383.98158 756.070296 825.863616 512.026094 825.863616z m70.871118-460.764081c-20.042475-20.384259-33.031301-37.592177-38.97364-51.7005-5.937223-14.112416-8.928347-34.94386-8.928347-62.496379h-55.719022c0 31.269168 3.544733 56.488549 10.640338 75.624375 7.093559 19.170618 22.603811 41.078581 46.616713 65.812915l25.040303 25.933649c7.521301 7.437389 13.544481 15.232936 18.116613 23.298635 8.332782 14.242376 12.521175 28.987195 12.521175 44.309158 0 21.410636-6.065136 40.000016-18.289552 55.772235-12.175297 15.766079-32.387641 23.654746-60.546981 23.654746-34.869159 0-58.96802-13.57518-72.29863-40.681538-7.477298-15.098883-11.793604-36.871769-12.822026-65.314565H372.538203c0 47.26242 12.728906 85.248569 38.20002 114.012684 25.463951 28.760021 60.421114 43.143613 104.85614 43.143612 41.111327 0 74.012667-12.272511 98.751095-36.917817 24.740474-24.641213 37.090756-56.084343 37.090756-94.343715 0-23.210631-4.572132-42.023092-13.633508-56.446594-9.05933-14.430664-27.343765-35.664268-54.905494-63.660901zM410.676825 573.258435c-3.6399-4.122901-6.019087-6.795776-7.80271-8.800434 3.111874 3.514033 7.267521 8.197706 7.80271 8.800434z m0.060375 0.067538l-0.060375-0.067538 0.060375 0.067538z m129.555681-445.079868h-62.300928v68.226894h62.300928v-68.226894z"  horiz-adv-x="1024" />

    
    <glyph glyph-name="v" unicode="&#58922;" d="M512-128C229.216-128 0 101.216 0 384S229.216 896 512 896s512-229.216 512-512-229.216-512-512-512zM256 672l196.608-548.352h101.376L750.592 672h-90.624l-155.136-454.656h-2.304L346.624 672H256z"  horiz-adv-x="1024" />

    
    <glyph glyph-name="huanfang" unicode="&#58988;" d="M988.93 544H32.13c-19.2 0-32 12.8-32 32s12.8 32 32 32h886.4L684.93 841.6c-12.8 12.8-12.8 32 0 44.8 12.8 12.8 32 12.8 44.8 0l284.8-281.6c9.6-9.6 12.8-25.6 6.4-38.4-6.4-12.8-19.2-22.4-32-22.4z m-672-672c-9.6 0-16 3.2-22.4 9.6L9.73 163.2c-9.6 9.6-12.8 25.6-6.4 38.4 6.4 12.8 19.2 22.4 32 22.4h956.8c19.2 0 32-12.8 32-32s-12.8-32-32-32h-886.4l233.6-233.6c12.8-12.8 12.8-32 0-44.8-6.4-6.4-12.8-9.6-22.4-9.6z"  horiz-adv-x="1024" />

    
    <glyph glyph-name="jifenfenlei" unicode="&#58627;" d="M320 384L192 384c-70.4 0-128-57.6-128-128l0-128c0-70.4 57.6-128 128-128l128 0c70.4 0 128 57.6 128 128l0 128C448 326.4 390.4 384 320 384zM384 128c0-35.2-28.8-64-64-64L192 64c-35.2 0-64 28.8-64 64l0 128c0 35.2 28.8 64 64 64l128 0c35.2 0 64-28.8 64-64L384 128zM768 832l-128 0C569.6 832 512 774.4 512 704l0-128c0-70.4 57.6-128 128-128l128 0c70.4 0 128 57.6 128 128L896 704C896 774.4 838.4 832 768 832zM832 576c0-35.2-28.8-64-64-64l-128 0C604.8 512 576 540.8 576 576L576 704c0 35.2 28.8 64 64 64l128 0c35.2 0 64-28.8 64-64L832 576zM768 384l-128 0c-70.4 0-128-57.6-128-128l0-128c0-70.4 57.6-128 128-128l128 0c70.4 0 128 57.6 128 128l0 128C896 326.4 838.4 384 768 384zM832 128c0-35.2-28.8-64-64-64l-128 0c-35.2 0-64 28.8-64 64l0 128c0 35.2 28.8 64 64 64l128 0c35.2 0 64-28.8 64-64L832 128zM320 832L192 832C121.6 832 64 774.4 64 704l0-128c0-70.4 57.6-128 128-128l128 0c70.4 0 128 57.6 128 128L448 704C448 774.4 390.4 832 320 832zM384 576c0-35.2-28.8-64-64-64L192 512C156.8 512 128 540.8 128 576L128 704c0 35.2 28.8 64 64 64l128 0c35.2 0 64-28.8 64-64L384 576z"  horiz-adv-x="1024" />

    
    <glyph glyph-name="gugeyanzheng" unicode="&#58813;" d="M521.508571 450.340571h434.809905c4.803048-26.940952 7.192381-52.662857 7.192381-77.190095 0-87.28381-18.18819-165.180952-54.564571-233.74019-36.400762-68.559238-88.259048-122.148571-155.623619-160.743619C685.958095-59.928381 608.694857-79.238095 521.508571-79.238095c-62.780952 0-122.538667 12.166095-179.321904 36.498285-56.758857 24.33219-105.74019 57.197714-146.919619 98.620953-41.20381 41.398857-73.874286 90.672762-98.060191 147.748571A457.630476 457.630476 0 0 0 60.952381 384c0 63.146667 12.092952 123.245714 36.278857 180.345905C121.417143 621.470476 154.112 670.72 195.291429 712.118857c41.179429 41.447619 90.160762 74.288762 146.919619 98.620953A450.511238 450.511238 0 0 0 521.532952 847.238095c119.954286 0 222.890667-40.423619 308.833524-121.246476l-125.318095-121.222095C655.847619 652.604952 594.70019 676.547048 521.508571 676.547048c-51.590095 0-99.254857-13.06819-143.043047-39.204572a288.134095 288.134095 0 0 1-104.033524-106.471619C248.856381 486.034286 236.056381 437.077333 236.056381 384s12.8-102.034286 38.4-146.870857a288.134095 288.134095 0 0 1 104.033524-106.471619 273.968762 273.968762 0 0 1 143.043047-39.204572c34.767238 0 66.755048 4.827429 95.939048 14.482286 29.184 9.654857 53.174857 21.699048 71.972571 36.181333a261.12 261.12 0 0 1 49.176381 49.493334c13.994667 18.480762 24.283429 35.961905 30.890667 52.443428a222.598095 222.598095 0 0 1 13.482667 47.055238H521.532952v159.232z"  horiz-adv-x="1024" />

    
    <glyph glyph-name="people" unicode="&#58895;" d="M487.228 228.68200000000002c-19.282 3.124-19.718 57.164-19.718 57.164s56.646 57.174 68.992 134.048c33.208 0 53.718 81.724 20.51 110.48C558.394 560.644 599.7 768 390.6 768c-209.098 0-167.794-207.356-166.41-237.626-33.212-28.756-12.7-110.48 20.508-110.48 12.346-76.876 68.992-134.048 68.992-134.048s-0.438-54.04-19.718-57.164C231.878 218.60799999999995 0 114.33600000000001 0 0h781.196c0.002 114.336-231.874 218.608-293.968 228.682z m259.564 13.35c-18.186 2.942-18.596 53.902-18.596 53.902s53.414 53.914 65.058 126.404c31.314 0 50.658 77.07 19.342 104.182 1.304 28.542 40.25 224.076-156.924 224.076-19.776 0-37.168-1.97-52.468-5.538 85.54-57.394 60.586-186.776 59.516-210.192 33.208-28.756 12.7-110.478-20.512-110.478-9.57-59.602-45.764-107.354-61.548-125.806-0.99-2.748-2.324-8.914-2.324-8.914s-2.666-18.666-1.152-33.104c2.8-11.614 7.586-22.066 15.754-23.39 58.102-9.43 264.866-101.332 291.196-206.788H1024c0 107.818-218.658 206.144-277.208 215.646z"  horiz-adv-x="1024" />

    
    <glyph glyph-name="shimingrenzheng" unicode="&#58930;" d="M870.4 701.19c63.688 0 116.137-46.205 116.137-103.649V76.8c0-57.444-51.2-103.649-116.137-103.649H233.522c-63.688 0-116.137 46.205-116.137 103.649V597.541c0 57.444 51.2 103.65 116.137 103.65H870.4zM860.41 808.585H163.59c-76.175 0-138.614-58.692-138.614-129.873v-588.175c0-72.43 62.439-131.122 138.614-131.122h695.571c77.424 0 139.863 58.692 139.863 129.873V678.712c0 71.18-62.439 129.873-138.614 129.873z m113.639-719.297c0-57.444-51.2-104.898-113.64-104.898H163.59c-62.439 0-113.639 47.454-113.639 104.898V678.712c0 57.444 51.2 104.898 113.64 104.898h695.57c62.439 0 113.639-47.454 113.639-104.898v-589.424zM407.102 547.59h-203.55c-7.493 0-12.489-4.995-12.489-12.488s4.996-12.487 12.488-12.487h203.551c7.493 0 12.488 4.995 12.488 12.487s-4.995 12.488-12.488 12.488z m0-172.331h-203.55c-7.493 0-12.489-4.996-12.489-12.488s4.996-12.488 12.488-12.488h203.551c7.493 0 12.488 4.995 12.488 12.488s-4.995 12.488-12.488 12.488z m-53.697-171.083H197.307c-7.492 0-12.487-4.996-12.487-12.488s4.995-12.488 12.487-12.488h157.347c7.492 0 12.487 4.995 12.487 12.488s-6.243 12.488-13.736 12.488z m379.63 149.853c28.721 18.732 47.453 51.2 47.453 87.415 0 57.444-47.454 104.897-104.898 104.897-57.444 0-104.897-47.453-104.897-104.897 0-37.464 19.98-69.932 48.702-88.664-72.43-18.731-122.38-76.175-138.615-161.092-1.248-6.244 3.747-13.737 9.99-14.986 6.245-1.248 13.737 3.747 14.986 9.99 18.732 96.157 79.922 148.606 172.332 148.606s153.6-52.45 172.332-148.605c1.248-6.244 6.243-9.99 12.487-9.99h2.498c6.244 1.248 11.239 7.492 9.99 14.985-16.234 87.414-67.434 144.858-142.36 162.341z m-137.367 88.664c0 43.707 36.215 79.922 79.922 79.922 43.708 0 79.922-36.215 79.922-79.922 0-43.708-36.214-79.922-79.922-79.922-43.707 0-79.922 34.966-79.922 79.922z"  horiz-adv-x="1024" />

    
    <glyph glyph-name="Ensure" unicode="&#58889;" d="M461 328.6c1.8 2.1 2.9 3.6 4.1 4.8 56 56.1 112.2 112.2 168.1 168.3 6.2 6.2 13.1 9.9 22.1 8.7 9.3-1.4 15.8-6.5 19.2-15.2 3.4-8.8 1.6-16.9-4.3-24.1-1.2-1.5-2.7-2.9-4.2-4.3C604.3 405 542.5 343 480.7 281.29999999999995c-13.6-13.5-26.3-13.5-40 0.2-30.6 30.5-61.2 61-91.7 91.5-10 10-10.7 24.2-1.9 33.9 9.3 10.2 24.8 10.7 34.9 0.7 14.7-14.4 29.1-29 43.6-43.5 11.6-11.5 23.1-23.2 35.4-35.5M199.1 630c-0.5-9.1-1.2-18-1.5-26.9-1.2-44.4 1.4-88.7 8.7-132.6 11.6-70 33.5-136.6 68.6-198.6 53.9-95.4 129.4-167.9 229.3-214.2 3.1-1.4 5.6-1.4 8.8 0 90.6 41.8 162.1 105.6 214.9 190 70.8 113.1 97 237.6 91.2 369.8-0.2 4.2-0.7 8.5-1.1 12.8-1.7 0.1-3 0.2-4.3 0.3-30.2 0.5-60.2 3-89.9 8-75.7 13-146.2 39.9-211.1 81.1-2.8 1.8-4.8 1.9-7.9 0.1-11.9-7.3-24-14.7-36.4-21.3-71.7-38.4-148.1-60.6-229.3-66.3-13-1-26.1-1.5-40-2.2m-50.2-49.7c1 18.4 1.5 36.8 2.9 55.1 1.8 22.9 20.8 41.3 43.7 42.7 20.3 1.3 40.7 1.6 60.9 3.8 80.7 8.7 155.4 35.2 223.9 78.9 13.9 8.8 28.3 11.7 43.9 6.5 4.2-1.4 8.2-3.6 11.9-6 61.1-39 127.4-64.3 198.8-76 27-4.5 54.2-6.6 81.6-6.9 28.9-0.4 47.7-19.4 49.8-48.3 2.7-38.4 2.3-76.8-1.3-115.1-12.6-133-56.8-253.4-143.1-356.7-52.9-63.4-117.1-111.8-192.3-145.8-14.3-6.4-28.4-6.1-42.7 0.5-68 30.8-127.1 73.8-177.3 129.1-65.3 71.9-108.9 155.7-134.8 249-17.2 61.8-25.2 125-25.9 189.2"  horiz-adv-x="1024" />

    
    <glyph glyph-name="maliu" unicode="&#59211;" d="M952 824v-880H72V824h880m0 72H72C32.2 896 0 863.8 0 824v-952h952c39.8 0 72 32.2 72 72V824c0 39.8-32.2 72-72 72zM67.5 750h889v-36h-889zM259.7 239.4l-12-14.6-134.1 120.9 132.8 122.2 13.3-13.3-119.5-108.9 119.5-106.3zM921.7 345.7L787.6 224.8l-12 14.6 119.5 106.3-119.5 108.9 13.3 13.3 132.8-122.2zM789 784m-18 0a18 18 0 1 1 36 0 18 18 0 1 1-36 0ZM846 784m-18 0a18 18 0 1 1 36 0 18 18 0 1 1-36 0ZM900 784m-18 0a18 18 0 1 1 36 0 18 18 0 1 1-36 0ZM457 151h500v-36H457zM249 25h708v-36H249zM512 89h445v-36H512zM319.7 229.7h-35.6l121.3 348.9h36L319.7 229.7zM464.3 278c0 19.5 13.6 33.9 31.8 33.9 18.7 0 31.4-14 31.4-33.9 0-19.5-12.3-33.5-31.8-33.5s-31.4 14.9-31.4 33.5zM568.2 278c0 19.5 13.6 33.9 31.8 33.9 18.7 0 31.4-14 31.4-33.9 0-19.5-12.3-33.5-31.8-33.5s-31.4 14.9-31.4 33.5zM672 278c0 19.5 13.6 33.9 31.8 33.9 18.7 0 31.4-14 31.4-33.9 0-19.5-12.3-33.5-31.8-33.5S672 259.4 672 278z"  horiz-adv-x="1024" />

    
    <glyph glyph-name="shipin" unicode="&#58927;" d="M991.607 550.586c27.764 16.121 54.633 31.347 81.502 46.573 55.529 31.794 111.057 63.589 166.586 94.936 18.808 10.747 39.855 2.687 46.125-17.017 1.343-4.478 1.79-9.404 1.79-13.882v-553.944c0-20.6-9.403-32.69-28.211-35.377-8.509-1.344-15.674 1.791-22.839 5.821-67.62 38.96-135.687 77.472-203.306 115.984-13.435 7.613-27.317 15.673-41.2 23.286-1.79-2.239-0.895-4.478-0.895-6.717v-76.128c0-59.56-41.646-108.819-99.862-118.67-7.165-1.344-14.33-1.792-21.495-1.792h-605.89c-58.216 0-105.236 36.273-119.118 91.802-3.135 11.195-3.583 22.39-3.583 34.033V631.64c0 35.377 11.644 65.829 37.169 90.01 23.286 21.943 51.05 33.139 82.845 33.139h609.92c59.112 0 109.714-43.438 118.67-101.654 1.344-7.613 1.344-15.673 1.792-23.286v-79.263z"  horiz-adv-x="1582" />

    
    <glyph glyph-name="huaweiLOGO" unicode="&#58881;" d="M44.6-25.4H127v65.9h37.1v-162.7H127v68H44.6v-68H7.5V40.5h37.1v-65.9zM231.3-56.9c0-28.8 9.1-40.8 39.7-40.8s39.5 12 39.5 40.8v97.4h37.1v-98.3c0-20.8-2.5-35.1-10.3-43.7-14.5-15.9-35.6-22.4-66.2-22.4-30.7 0-52 6.6-66.5 22.4-8.1 8.8-10.1 23.1-10.1 43.7v98.3h36.8v-97.4zM468.6 40.5l75.1-162.7h-41.2l-16.2 38.7h-76.5l-15.7-38.7h-39.2l74.6 162.7h39.1z m-46.8-95h52.5L447.6 8l-25.8-62.5zM560.5 40.5l40.7-125.1 34.3 125.1h43.7l39.5-125.1 38 125.1h38l-54.5-162.7h-45.4l-37.5 121.4-32.9-121.4h-45.1l-58.6 162.7h39.8zM844.6-25.6h102.5V-54H844.4c0.2-29.3 12.7-39.9 41.9-39.9h60.8v-28.3h-62.5c-21.3 0-37.8 1.6-54.9 14.3-18.1 13.3-27 34.7-27 64.1 0 57.5 26.3 84.3 82.9 84.3h61.6v-28.3h-60.8c-26.8 0-40.3-12.3-41.8-37.8zM979.8-122.2V40.5h38.7v-162.7h-38.7zM441.8 289.5s1.8 1.4 0.9 3.8C322.4 556.2 157.8 755.5 157.8 755.5s-89.5-85-83.2-170.1c3.4-64.4 51.9-102.6 51.9-102.6 78.1-76.1 267.2-172.2 311.1-194 0.6-0.2 2.9-0.9 4.2 0.7zM412.6 224.5c-0.8 2.8-4 2.8-4 2.8v0.1l-314.8-11c34.1-60.9 91.6-108.1 151.5-93.6 41.3 10.3 134.9 75.6 165.8 97.7l-0.1 0.1c2.4 2.1 1.6 3.9 1.6 3.9zM417.4 252.7c1.5 2.5-1.2 4.7-1.2 4.7C278 350.7 10 493.9 10 493.9c-24.3-75.4 8.5-136.2 8.5-136.2 34.1-72.2 99.3-94 99.3-94 30.1-12.4 60.2-13.2 60.2-13.2 4.7-0.9 187.2-0.1 236.1 0.1 2.1 0 3.3 2.1 3.3 2.1zM438.2 891.4c-13.7-1.2-50.7-9.6-50.7-9.6-83.3-21.5-103-97.2-103-97.2-15.2-47.6 0.4-99.8 0.4-99.8C312.8 561.4 449.6 358.6 479.1 316c2.1-2.1 3.7-1.3 3.7-1.3 3.2 0.9 2.9 3.9 2.9 3.9C531.1 771.4 438.2 891.4 438.2 891.4zM542.5 314.8c3-1.2 4.6 1.8 4.6 1.8 30.2 43.7 166.3 245.4 194 368.3 0 0 15 59.5 0.5 99.8 0 0-20.6 76.8-104 97.1 0 0-24 6.1-49.6 9.7 0 0-93.3-120.1-47.9-573.2h0.1c0.2-2.9 2.3-3.5 2.3-3.5zM617 227.1s-2.8-0.4-3.5-2.4c0 0-0.7-2.8 1.2-4.2 30.1-21.6 121.5-85.5 165.5-97.9 0 0 81.4-27.7 152.1 93.7L617 227.1zM1015.9 494.5S748.3 350.9 610 257.6c0 0-2.5-1.6-1.6-4.6 0 0 1.3-2.4 3.2-2.4 49.5-0.1 237-0.3 241.7 0.6 0 0 24.2 1 54.2 12.5 0 0 66.7 21.2 101.3 96.9 0.1 0 31 61.8 7.1 133.9zM584.7 289.5s2.2-1.6 4.2-0.3c45.1 22.4 232.7 117.9 310.5 193.6 0 0 49.2 39.5 51.8 103 5.7 88.1-83 169.7-83 169.7s-164.1-198.7-284.4-461h0.1c0 0.1-1.4-3 0.8-5z"  horiz-adv-x="1024" />

    
    <glyph glyph-name="shengming" unicode="&#59037;" d="M512.172014 896C238.32555 896 12.987065 673.069713 12.987065 396.987065c0-273.846464 222.930287-499.012935 499.012935-499.012934 273.846464 0 499.012935 222.930287 499.012935 499.012934C1008.776751 673.069713 785.846464 896 512.172014 896m0-925.435915c-234.971275 0-426.42298 191.451705-426.42298 426.42298S277.200739 823.238031 512.172014 823.238031 938.594994 631.95834 938.594994 396.987065 747.143289-29.435915 512.172014-29.435915M475.877037 120.732404h70.181757v356.069209H475.877037v-356.069209z m36.294977 523.266924c-14.621199 0-26.662187-4.816395-38.703175-14.621199-9.63279-9.63279-14.621199-24.25399-14.621199-38.703175 0-14.621199 4.816395-29.070385 14.621199-38.703175 9.63279-9.63279 24.25399-14.621199 38.703175-14.621199s26.662187 4.816395 38.703175 14.621199c9.63279 9.63279 14.621199 24.25399 14.621199 38.703175 0 14.621199-4.816395 26.662187-14.621199 38.703175-12.040988 9.804804-24.25399 14.621199-38.703175 14.621199"  horiz-adv-x="1024" />

    
    <glyph glyph-name="qr" unicode="&#59079;" d="M426.666667 768v-298.666667H128V768h298.666667m0 42.666667H128c-25.6 0-42.666667-17.066667-42.666667-42.666667v-298.666667c0-25.6 17.066667-42.666667 42.666667-42.666666h298.666667c25.6 0 42.666667 17.066667 42.666666 42.666666V768c0 25.6-17.066667 42.666667-42.666666 42.666667zM896 768v-298.666667h-298.666667V768h298.666667m0 42.666667h-298.666667c-25.6 0-42.666667-17.066667-42.666666-42.666667v-298.666667c0-25.6 17.066667-42.666667 42.666666-42.666666h298.666667c25.6 0 42.666667 17.066667 42.666667 42.666666V768c0 25.6-17.066667 42.666667-42.666667 42.666667zM426.666667 298.666667v-298.666667H128v298.666667h298.666667m0 42.666666H128c-25.6 0-42.666667-17.066667-42.666667-42.666666v-298.666667c0-25.6 17.066667-42.666667 42.666667-42.666667h298.666667c25.6 0 42.666667 17.066667 42.666666 42.666667v298.666667c0 25.6-17.066667 42.666667-42.666666 42.666666zM213.333333 682.666667h128v-128H213.333333zM213.333333 213.333333h128v-128H213.333333zM682.666667 682.666667h128v-128h-128zM554.666667 341.333333h85.333333v-170.666666h-85.333333zM554.666667 85.333333h85.333333v-128h-85.333333zM640 170.666667h85.333333v-85.333334h-85.333333zM725.333333 85.333333h85.333334v-128h-85.333334zM725.333333 341.333333h85.333334v-170.666666h-85.333334zM896 341.333333h42.666667v-213.333333h-42.666667zM896 85.333333h42.666667v-128h-42.666667zM810.666667 256h85.333333v-85.333333h-85.333333zM810.666667 85.333333h85.333333v-42.666666h-85.333333z"  horiz-adv-x="1024" />

    
    <glyph glyph-name="duigou" unicode="&#59012;" d="M486.709728-127.995181c-189.559579-0.84329-362.193119 115.16934-441.823803 296.958602s-51.741874 395.924725 71.498958 548.138597C256.431283 888.771799 486.227848 943.585658 682.473513 852.209147a46.320723 46.320723 0 0 0 27.28646-37.767351 47.706128 47.706128 0 0 0-18.251208-43.369208 42.104272 42.104272 0 0 0-44.875083-3.915276C486.107378 842.752251 297.692265 797.816933 183.486685 656.686303 69.34134 515.495438 56.631752 311.840867 152.224714 156.073129c95.653197-155.707503 276.840109-226.48364 445.317434-173.838241 168.477325 52.585164 284.18878 216.002748 284.369485 401.647051v43.308973c0 25.72035 19.757083 46.561663 44.092028 46.561663 24.395179 0 44.092028-20.841314 44.092028-46.561663v-43.308973c-0.96376-226.664345-142.034155-426.04223-347.556011-491.156277A453.991275 453.991275 0 0 0 486.830198-127.995181zM570.617098 293.649893c-12.047002 0-23.491654 5.059741-31.563145 13.974523L410.813615 448.453871a43.188503 43.188503 0 0 0 2.590106 60.777126 42.646388 42.646388 0 0 0 60.47595-2.650341L570.677333 400.265862 1009.911031 882.085713A42.646388 42.646388 0 0 0 1070.386982 884.675818c17.407918-16.082748 18.552383-43.308973 2.590105-60.837361l-470.796843-516.214041a42.646388 42.646388 0 0 0-31.563146-13.974523z"  horiz-adv-x="1084" />

    
    <glyph glyph-name="huanhuo" unicode="&#58896;" d="M512-81.454545c257.070545 0 465.454545 208.384 465.454545 465.454545S769.070545 849.454545 512 849.454545 46.545455 641.070545 46.545455 384s208.384-465.454545 465.454545-465.454545z m0-46.545455C229.236364-128 0 101.236364 0 384S229.236364 896 512 896s512-229.236364 512-512-229.236364-512-512-512zM321.815273 508.369455H768a23.272727 23.272727 0 1 0 0-46.545455H321.815273l59.019636-59.019636a23.272727 23.272727 0 0 0-32.907636-32.907637L249.204364 468.619636a23.272727 23.272727 0 0 0 0 32.907637l98.676363 98.722909a23.272727 23.272727 0 0 0 32.954182-32.907637L321.815273 508.369455zM701.486545 283.601455l-59.019636 59.019636a23.272727 23.272727 0 1 0 32.907636 32.907636l98.769455-98.722909a23.272727 23.272727 0 0 0 0-32.907636l-98.769455-98.769455a23.272727 23.272727 0 0 0-32.907636 32.907637l59.019636 59.019636H263.307636a23.272727 23.272727 0 1 0 0 46.545455h438.178909z"  horiz-adv-x="1024" />

    
    <glyph glyph-name="shezhi" unicode="&#59434;" d="M328.663653 388.734345a181.32221 181.32221 0 1 0 176.310182-185.930041 181.483888 181.483888 0 0 0-176.310182 185.930041z m320.446384-8.730628a139.205013 139.205013 0 1 1-143.004454-135.405574 139.447531 139.447531 0 0 1 143.004454 135.405574z m0 0M15.73531 514.358381a22.230766 22.230766 0 0 0 0.727552 5.012027 512.5202 512.5202 0 0 0 129.908512 224.732832 21.099018 21.099018 0 0 0 27.242793 2.344336 119.318583 119.318583 0 0 1 188.355215 109.617885 21.099018 21.099018 0 0 0 15.440277 22.634961A517.370549 517.370549 0 0 0 637.38836 879.83217a21.018179 21.018179 0 0 0 15.359438-22.069087A119.237744 119.237744 0 0 1 842.638957 750.489533a21.018179 21.018179 0 0 0 27.323633-1.940139 510.903417 510.903417 0 0 0 138.315782-244.94262 21.099018 21.099018 0 0 0-12.449229-24.251744 119.237744 119.237744 0 0 1-6.143775-217.699826 21.018179 21.018179 0 0 0 10.994124-25.060136A512.843557 512.843557 0 0 0 865.273919 14.853284a21.260696 21.260696 0 0 0-27.242793-1.697622 119.237744 119.237744 0 0 1-190.214516-104.686697 20.937339 20.937339 0 0 0-16.167829-22.069088 516.077122 516.077122 0 0 0-259.251149 4.446154 20.937339 20.937339 0 0 0-15.19776 22.554122 119.480261 119.480261 0 0 1-57.557473 115.276625l10.751606 18.512165-10.751606-18.02713a119.722779 119.722779 0 0 1-128.938442-4.526992 20.8565 20.8565 0 0 0-27.081114 2.586853A514.056144 514.056144 0 0 0 15.573632 252.843737a21.260696 21.260696 0 0 0 11.721676 24.251744 119.722779 119.722779 0 0 1 70.653416 108.16278 119.237744 119.237744 0 0 1-69.845024 109.456207A20.8565 20.8565 0 0 0 15.73531 514.358381zM164.560182 701.986044A470.241325 470.241325 0 0 1 61.651946 524.139918a161.678297 161.678297 0 0 0 78.009778-139.043335 161.678297 161.678297 0 0 0-79.060687-137.911587 470.483843 470.483843 0 0 1 101.53397-178.735357 161.678297 161.678297 0 0 0 237.667096-141.145153 473.879087 473.879087 0 0 1 205.573954-3.476083 161.678297 161.678297 0 0 0 242.517445 133.384595 470.72636 470.72636 0 0 1 107.354389 175.178434 161.678297 161.678297 0 0 0 8.083915 277.601635 468.86706 468.86706 0 0 1-110.911312 196.358291A161.678297 161.678297 0 0 0 610.226406 843.292875a473.474891 473.474891 0 0 1-205.573954-1.212587A161.678297 161.678297 0 0 0 164.560182 701.986044z m0 0"  horiz-adv-x="1024" />

    
    <glyph glyph-name="tuikuan-copy" unicode="&#58628;" d="M890.32829206 790.96140737H620.96491103v-56.20574486h269.62850246c24.65629374 0 44.80552302-15.64216485 44.80552303-36.05651558v-712.11618254c0-20.14922928-20.14922928-36.05651557-44.80552303-36.05651556H135.79267945c-24.65629374 0-44.80552302 15.64216485-44.80552302 36.05651556V701.08523987c0 20.14922928 20.14922928 36.05651557 44.80552302 36.05651558h202.02253577L297.51675664 710.09936877l31.54945113-47.19161597 116.65343273 76.35497415c6.62803595 4.50706445 11.13510039 13.52119333 13.52119333 22.53532223 0 9.01412889-4.50706445 18.02825779-11.13510039 22.53532223l-116.91855417 85.36910305-33.67042263-44.80552303 47.19161597-33.67042263h-208.91569316c-56.20574486 0-101.01126789-40.29845858-101.0112679-89.87616749v-714.23715404c0-51.69868042 44.80552302-91.997139 101.0112679-91.99713898h754.53561261c56.20574486 0 101.01126789 40.29845858 101.01126789 91.99713898V701.08523987c0 49.31258747-44.80552302 89.87616749-101.01126789 89.8761675z m0 0M706.06889264 294.65407539h-161.72407719v82.9830101h155.09604124v62.8337808H562.37307323l114.53246122 114.53246123-40.29845858 40.56358002-123.54659012-123.54659012-123.54659012 123.54659012-40.29845858-40.29845858 114.53246122-114.53246123h-137.06778344v-62.83378081h155.09604123v-82.9830101h-161.72407718v-65.21987375h161.72407718v-184.25939942h62.83378081v184.25939942h161.7240772v64.95475232z m0 0"  horiz-adv-x="1024" />

    
    <glyph glyph-name="yanjing" unicode="&#59036;" d="M511.4 663.6C233.1 663.6 65 379.5 65 379.5s194.2-275.4 446.5-275.4c252.2 0 446.5 275.4 446.5 275.4S789.8 663.6 511.4 663.6z m287-388.5c-92.8-78.3-191.3-127.6-289.9-127.6S311.4 194 218.6 275.1c-31.9 29-63.8 58-89.9 89.9-5.8 5.8-8.7 11.6-14.5 17.4 2.9 5.8 8.7 11.6 11.6 17.4 23.2 31.9 52.2 63.8 84.1 92.8C299.8 573.7 398.4 623 508.5 623c110.2 0 208.7-49.3 298.6-130.5 31.9-29 58-60.9 84.1-92.8 2.9-5.8 8.7-11.6 11.6-17.4-2.9-5.8-8.7-11.6-14.5-17.4-26.1-28.9-55.1-60.8-89.9-89.8z m0 0M508.5 553.4c-87 0-153.7-69.6-153.7-153.7 0-87 69.6-153.7 153.7-153.7 87 0 153.7 69.6 153.7 153.7 0 84.2-69.6 153.7-153.7 153.7z m0-266.7c-60.9 0-110.2 49.3-110.2 110.2 0 60.9 49.3 110.2 110.2 110.2 60.9 0 110.2-49.3 110.2-110.2 0-58-49.3-110.2-110.2-110.2z m0 0M509 392.6m-119.4 0a119.4 119.4 0 1 1 238.8 0 119.4 119.4 0 1 1-238.8 0Z"  horiz-adv-x="1024" />

    
    <glyph glyph-name="qiye" unicode="&#58910;" d="M928 64L896 64 896 512c0 70.4-57.6 128-128 128L576 640 576 704c0 70.4-57.6 128-128 128L192 832C121.6 832 64 774.4 64 704l0-640L32 64C14.08 64 0 49.91999999999996 0 32 0 14.080000000000041 14.08 0 32 0l896 0c17.92 0 32 14.08 32 32C960 49.91999999999996 945.92 64 928 64zM512 640l0-64 0-512L128 64 128 704c0 35.2 28.8 64 64 64l256 0c35.2 0 64-28.8 64-64L512 640zM832 64L576 64 576 576l192 0c35.2 0 64-28.8 64-64L832 64zM416 640l-192 0C206.08 640 192 625.9200000000001 192 608 192 590.0799999999999 206.08 576 224 576l192 0C433.92 576 448 590.0799999999999 448 608 448 625.9200000000001 433.92 640 416 640zM416 448l-192 0C206.08 448 192 433.92 192 416 192 398.08 206.08 384 224 384l192 0C433.92 384 448 398.08 448 416 448 433.92 433.92 448 416 448zM416 256l-192 0C206.08 256 192 241.91999999999996 192 224S206.08 192 224 192l192 0C433.92 192 448 206.08000000000004 448 224S433.92 256 416 256zM736 448l-64 0C654.08 448 640 433.92 640 416 640 398.08 654.08 384 672 384l64 0C753.92 384 768 398.08 768 416 768 433.92 753.92 448 736 448zM736 256l-64 0c-17.92 0-32-14.08-32-32s14.08-32 32-32l64 0c17.92 0 32 14.08 32 32S753.92 256 736 256z"  horiz-adv-x="1024" />

    
    <glyph glyph-name="saoma" unicode="&#58976;" d="M930.350825 896h-161.711145c-25.587206 0-46.568716-20.981509-46.568715-46.568716s20.981509-46.568716 46.568715-46.568715h115.142429c25.587206 0 46.568716-20.981509 46.568716-46.568716V640.127936c0-25.587206 20.981509-46.568716 46.568715-46.568716S1023.488256 614.54073 1023.488256 640.127936V802.862569C1023.488256 854.548726 982.036982 896 930.350825 896zM46.568716 593.55922c25.587206 0 46.568716 20.981509 46.568715 46.568716V756.805597c0 25.587206 20.981509 46.568716 46.568716 46.568716h115.142429c25.587206 0 46.568716 20.981509 46.568715 46.568715s-20.981509 46.056972-47.080459 46.056972H93.137431C41.451274 896 0 854.548726 0 802.862569V640.127936c0-25.587206 20.981509-46.568716 46.568716-46.568716zM255.36032-35.886057H139.706147c-25.587206 0-46.568716 20.981509-46.568716 46.568716v115.654173c0 25.075462-20.469765 46.056972-46.056971 46.056971H46.056972c-25.075462 0-46.056972-20.469765-46.056972-46.056971v-161.199401c0-51.174413 41.451274-93.137431 93.137431-93.137431h162.222889c25.075462 0 46.056972 20.469765 46.056971 46.056972s-20.981509 46.056972-46.056971 46.056971zM977.431284 172.393803h-1.535232c-25.075462 0-46.056972-20.469765-46.056972-46.056971V10.682659c0-25.587206-20.981509-46.568716-46.568715-46.568716H767.616192c-25.075462 0-46.056972-20.469765-46.056972-46.056971s20.469765-46.056972 46.056972-46.056972h162.222888c51.174413 0 93.137431 41.451274 93.137432 93.137431v160.687656c0.511744 26.098951-19.958021 46.568716-45.545228 46.568716zM46.568716 336.663668h930.350824c25.587206 0 46.568716 20.981509 46.568716 46.568716s-20.469765 46.568716-46.568716 46.568715H46.568716c-25.587206 0-46.568716-20.981509-46.568716-46.568715s20.981509-46.568716 46.568716-46.568716z"  horiz-adv-x="1024" />

    
    <glyph glyph-name="yijianfankui" unicode="&#58810;" d="M512.054 383.683c-17.603 0-32.006 14.403-32.006 32.006v320.57c0 17.603 14.403 32.006 32.006 32.006s32.006-14.403 32.006-32.006V415.69c0.001-17.604-14.402-32.007-32.006-32.007zM512.054 287.815m-31.779 0a31.779 31.779 0 1 1 63.558 0 31.779 31.779 0 1 1-63.558 0ZM890.28 774.265H744.192v-0.039c-16.842-0.797-30.253-14.701-30.253-31.74 0-18.909 16.742-31.621 34.696-32.162 12.389-0.373 24.847-0.001 37.24-0.001h64.162c25.763 0 46.649-20.885 46.649-46.649v-434.438c0-23.21-17.815-49.025-41.025-49.025h-198.8a73.555 73.555 0 0 1-52.002-21.535l-91.808-84.806-29.286 29.291-62.515 55.515a73.56 73.56 0 0 1-52.007 21.535H168.448c-22.657 0-41.025 25.368-41.025 48.025V666.298c0 24.214 19.811 44.025 44.025 44.025h66.241c16.634 0 36.456-3.344 52.506 2.024 12.817 4.287 21.689 16.63 21.689 30.139 0 17.551-14.228 31.779-31.779 31.779-0.063 0-0.126-0.004-0.189 0H133.828c-38.683 0-70.042-31.359-70.042-70.042v-516.309c0-38.683 31.359-70.042 70.042-70.042h237.144l112.786-112.806c15.629-15.624 40.962-15.624 56.591 0l112.787 112.806H890.28c38.683 0 70.042 31.359 70.042 70.042V704.223c0 38.686-31.361 70.042-70.042 70.042z"  horiz-adv-x="1024" />

    
    <glyph glyph-name="youhuijuan" unicode="&#58992;" d="M109.714286-128c-61.89011 0-109.714286 50.637363-109.714286 112.527473v233.494505c47.824176 11.252747 87.208791 36.571429 109.714286 70.32967 11.252747 19.692308 30.945055 56.263736 30.945055 95.648352 0 36.571429-19.692308 70.32967-30.945055 92.835165-22.505495 36.571429-64.703297 64.703297-109.714286 73.142857V783.472527c0 61.89011 50.637363 112.527473 109.714286 112.527473h1215.296703C1386.901099 896 1434.725275 845.362637 1434.725275 783.472527v-233.494505c-42.197802-11.252747-81.582418-36.571429-104.087912-75.956044l-2.813187-8.43956c-14.065934-25.318681-30.945055-50.637363-30.945055-81.582418s16.879121-59.076923 30.945055-81.582418l5.626373-8.43956c22.505495-39.384615 61.89011-67.516484 104.087913-75.956044v-233.494505c0-61.89011-50.637363-112.527473-109.714286-112.527473H109.714286zM478.241758-57.670330000000035h891.78022v210.989011c-92.835165 59.076923-143.472527 143.472527-143.472527 230.681319s53.450549 174.417582 143.472527 230.681319V822.857143H478.241758v-106.901099h-81.582417V822.857143H67.516484v-199.736264c70.32967-42.197802 143.472527-129.406593 143.472527-241.934066s-75.956044-196.923077-143.472527-241.934066V-60.48351600000001h329.142857v106.901098H478.241758v-104.087912zM1026.813187 347.42857100000003h-109.714286c-5.626374 0-8.43956 0-14.065934-2.813186-2.813187-2.813187-5.626374 0-5.626374-5.626374v-22.505495c0-8.43956 5.626374-8.43956 16.879121-8.43956h109.714286c11.252747 0 16.879121-5.626374 16.879121-16.879121v-36.571428c0-11.252747-8.43956-16.879121-22.505495-16.879121h-101.274725c-8.43956 0-14.065934-5.626374-14.065934-16.879121v-81.582418c0-5.626374-5.626374-8.43956-14.065934-8.43956h-39.384615c-14.065934 0-22.505495 5.626374-22.505495 19.692308v30.945054 42.197803 11.252747s-5.626374 2.813187-8.43956 2.813187h-109.714286c-14.065934 0-22.505495 8.43956-22.505495 22.505494v14.065934 14.065934c0 5.626374 2.813187 11.252747 5.626374 16.879121 2.813187 5.626374 8.43956 5.626374 14.065934 5.626374h120.967033c2.813187 0 2.813187 2.813187 2.813187 8.43956v22.505495c0 5.626374-8.43956 8.43956-19.692308 8.43956H694.857143c-2.813187 0-5.626374 2.813187-5.626374 8.439561v16.879121 22.505494c-2.813187 8.43956 0 14.065934 5.626374 16.879121 5.626374 5.626374 14.065934 8.43956 22.505494 8.43956h64.703297c8.43956 0 8.43956 2.813187 8.439561 8.439561-2.813187 2.813187-2.813187 11.252747-14.065935 25.318681s-28.131868 39.384615-42.197802 56.263736c-14.065934 19.692308-30.945055 42.197802-50.637362 64.703297-8.43956 14.065934-5.626374 22.505495 5.626373 30.945055 5.626374 2.813187 11.252747 8.43956 16.879121 14.065934 5.626374 5.626374 14.065934 11.252747 22.505495 14.065934 11.252747 8.43956 22.505495 0 30.945055-19.692308 2.813187-5.626374 8.43956-14.065934 19.692307-25.318681 8.43956-14.065934 19.692308-25.318681 28.131868-39.384615 8.43956-14.065934 19.692308-28.131868 28.131869-36.571429 8.43956-11.252747 14.065934-16.879121 14.065934-19.692307 2.813187-5.626374 5.626374-8.43956 11.252747-8.439561s11.252747 0 14.065934 5.626374c0 2.813187 5.626374 8.43956 14.065934 22.505494 8.43956 11.252747 16.879121 25.318681 28.131868 42.197802 11.252747 14.065934 19.692308 28.131868 28.131868 42.197803 8.43956 14.065934 14.065934 22.505495 16.879121 25.318681 5.626374 8.43956 11.252747 14.065934 14.065934 14.065934 2.813187 2.813187 11.252747 0 19.692308 0 5.626374-2.813187 11.252747-5.626374 16.879121-11.252747 8.43956-5.626374 11.252747-8.43956 14.065934-11.252748 11.252747-14.065934 14.065934-22.505495 11.252747-33.758241-2.813187-2.813187-8.43956-14.065934-19.692308-28.131868-11.252747-14.065934-22.505495-28.131868-33.758241-45.010989s-28.131868-36.571429-36.571429-50.637363-14.065934-22.505495-16.879121-25.318681c-2.813187-5.626374-2.813187-8.43956 5.626374-11.252748 5.626374 0 11.252747-2.813187 16.879121-2.813186h67.516483c5.626374 0 11.252747-2.813187 14.065934-8.439561 2.813187-5.626374 5.626374-8.43956 5.626374-14.065934V361.494505c2.813187-8.43956-2.813187-14.065934-14.065934-14.065934z m-630.153846 253.186814h84.395604v-180.043956h-84.395604v180.043956zM478.241758 133.62637400000006h-84.395604v210.989011h84.395604v-210.989011z"  horiz-adv-x="1437" />

    
    <glyph glyph-name="wode" unicode="&#58890;" d="M907.264-70.65599999999995H114.688c-16.384 0-32.768 8.192-43.008 20.48-10.24 14.336-14.336 30.72-10.24 47.104 40.96 208.896 210.944 364.544 415.744 380.928 68.608 0 142.848-8.704 217.088-38.912 21.504-8.704 28.672-14.336 40.96-20.48 118.784-67.584 200.704-184.32 227.328-321.536 4.096-16.384 0-32.768-12.288-47.104-10.24-12.288-26.624-20.48-43.008-20.48zM115.712-37.375999999999976c-6.656 0-12.8 2.56-16.384 7.168-0.512 0.512-0.512 1.024-1.024 1.536-5.12 5.12-5.632 13.824-4.608 18.944 37.888 194.56 197.12 340.48 387.584 354.304h15.36c91.648 0 179.712-28.672 222.72-55.808C832 221.18399999999997 907.264 115.20000000000005 930.816-9.727999999999952c1.024-7.168-0.512-13.824-5.632-20.48-3.584-4.608-9.728-7.168-16.384-7.168H115.712zM496.64 332.288c89.088 0 174.592-27.648 216.064-53.76h0.512c109.568-65.024 182.272-167.936 204.8-289.792 0.512-2.56 0.512-6.144-3.584-10.752-0.512-1.024-3.072-2.048-6.144-2.048H115.712c-3.072 0-5.632 1.024-6.144 2.048-0.512 1.024-1.536 2.048-2.56 2.56-1.024 1.024-2.048 4.096-1.024 7.68 36.864 188.928 190.976 330.24 375.808 344.064 4.608-0.512 9.728 0 14.848 0m0 25.6c-5.12 0-10.752 0-15.872-0.512C284.16 343.03999999999996 120.32 193.53599999999994 81.408-7.168000000000006c-2.048-10.24 0-22.528 8.192-30.72 6.144-8.192 16.384-12.288 26.624-12.288H908.8c10.24 0 20.48 4.096 26.624 12.288 6.144 8.192 10.24 18.432 8.192 30.72-24.576 131.072-102.4 238.592-217.088 307.2-43.52 27.136-132.608 57.856-229.888 57.856zM512 359.424c-129.024 0-235.52 106.496-235.52 235.52S382.976 830.4639999999999 512 830.4639999999999s235.52-106.496 235.52-235.52S641.024 359.424 512 359.424zM512 392.704c-111.616 0-202.24 90.624-202.24 202.24S400.384 797.184 512 797.184s202.24-90.624 202.24-202.24-90.624-202.24-202.24-202.24zM512 784.384c104.448 0 189.44-84.992 189.44-189.44S616.448 405.504 512 405.504s-189.44 84.992-189.44 189.44 84.992 189.44 189.44 189.44m0 25.6c-118.784 0-215.04-96.256-215.04-215.04s96.256-215.04 215.04-215.04 215.04 96.256 215.04 215.04S630.784 809.984 512 809.984z"  horiz-adv-x="1024" />

    
    <glyph glyph-name="jiantou-up-down" unicode="&#58626;" d="M811.59100001 571.387l-317.444-413.412c-22.06-28.734-69.89-28.734-91.951 0l-317.444 413.412c-20.453 26.633 5.128 59.94100001 46.038 59.94199999l634.826 1e-8c40.847 0 66.43-33.308 45.976-59.941z"  horiz-adv-x="1024" />

    
    <glyph glyph-name="fuwuzhongxin" unicode="&#58970;" d="M608.597-4.638m-34.917 0a34.917 34.917 0 1 1 69.834 0 34.917 34.917 0 1 1-69.834 0ZM836.119 226v18c21.359 0 41.754 13.79 57.425 38.83 16.492 26.352 25.575 61.571 25.575 99.17s-9.083 72.818-25.575 99.17C877.873 506.21 857.479 520 836.119 520v18c27.789 0 53.602-16.791 72.683-47.281 18.261-29.177 28.317-67.788 28.317-108.719s-10.057-79.542-28.317-108.719C889.721 242.791 863.908 226 836.119 226zM171 237.425c-27.789 0-53.601 16.791-72.683 47.281C80.057 313.883 70 352.493 70 393.425s10.057 79.542 28.317 108.719c19.082 30.489 44.894 47.281 72.683 47.281v-18c-21.36 0-41.753-13.79-57.425-38.83C97.083 466.243 88 431.023 88 393.425s9.083-72.817 25.575-99.17c15.671-25.04 36.065-38.83 57.425-38.83v-18zM611.432-13.18l-5.668 17.084c84.662 28.09 226.692 96.595 226.692 239.791v262.73c0 178.487-145.21 323.697-323.697 323.697s-323.698-145.21-323.698-323.697v-268.73h-18v268.73c0 45.931 9.074 90.577 26.968 132.699 17.27 40.649 41.964 77.199 73.397 108.632S335.41 803.885 376.06 821.155c42.122 17.895 86.768 26.968 132.699 26.968 45.931 0 90.578-9.074 132.7-26.968 40.649-17.27 77.198-41.964 108.632-73.397s56.128-67.983 73.397-108.632c17.896-42.122 26.969-86.769 26.969-132.699v-262.73c0-63.243-25.249-118.944-75.045-165.559-39.959-37.406-96.662-68.983-163.98-91.318z"  horiz-adv-x="1024" />

    
    <glyph glyph-name="yuyuejilu-" unicode="&#59153;" d="M682.666667 661.333333a42.666667 42.666667 0 0 1 42.666666-42.666666h149.333334l-192 192zM725.333333 576a85.333333 85.333333 0 0 0-85.333333 85.333333V810.666667H234.666667a85.333333 85.333333 0 0 1-85.333334-85.333334v-682.666666a85.333333 85.333333 0 0 1 85.333334-85.333334h554.666666a85.333333 85.333333 0 0 1 85.333334 85.333334V576z m-437.333333 53.333333A32 32 0 0 0 320 661.333333h32V693.333333a32 32 0 0 0 64 0V661.333333H448a32 32 0 0 0 0-64h-32v-32a32 32 0 0 0-64 0V597.333333H320a32 32 0 0 0-32 32z m405.333333-544h-362.666666a32 32 0 0 0 0 64h362.666666a32 32 0 0 0 0-64z m0 138.666667h-362.666666a32 32 0 0 0 0 64h362.666666a32 32 0 0 0 0-64z m0 138.666667h-362.666666a32 32 0 0 0 0 64h362.666666a32 32 0 0 0 0-64z"  horiz-adv-x="1024" />

    
    <glyph glyph-name="yetou_konggouwuche" unicode="&#58911;" d="M562.848914 426.978743l62.449372 62.464a14.628571 14.628571 0 1 0 20.6848-20.699429l-62.449372-62.464 62.464-62.434743a14.628571 14.628571 0 1 0-20.699428-20.6848l-62.449372 62.449372-62.449371-62.464a14.628571 14.628571 0 0 0-20.6848 20.699428l62.449371 62.449372-62.464 62.449371a14.628571 14.628571 0 0 0 20.699429 20.6848l62.464-62.449371zM380.342857-10.971429a73.142857 73.142857 0 1 0 0 146.285715 73.142857 73.142857 0 0 0 0-146.285715z m0 29.257143a43.885714 43.885714 0 1 1 0 87.771429 43.885714 43.885714 0 0 1 0-87.771429z m336.457143-29.257143a73.142857 73.142857 0 1 0 0 146.285715 73.142857 73.142857 0 0 0 0-146.285715z m0 29.257143a43.885714 43.885714 0 1 1 0 87.771429 43.885714 43.885714 0 0 1 0-87.771429zM234.876343 571.406629l81.949257-304.098743a58.514286 58.514286 0 0 1 56.495543-43.300572h382.127543a58.514286 58.514286 0 0 1 56.071314 41.808457l82.709943 277.372343a21.942857 21.942857 0 0 1-21.035886 28.218515H234.876343z m-7.8848 29.257142h646.202514a51.2 51.2 0 0 0 49.064229-65.828571l-82.695315-277.386971a87.771429 87.771429 0 0 0-84.114285-62.683429H373.321143a87.771429 87.771429 0 0 0-84.757943 64.936229l-106.613029 395.702857a21.942857 21.942857 0 0 1-21.1968 16.237714H73.874286v29.257143h86.893714a51.2 51.2 0 0 0 49.444571-37.888l16.7936-62.346972z"  horiz-adv-x="1024" />

    
    <glyph glyph-name="arrow-right-copy-copy-copy" unicode="&#58697;" d="M403.11361401 575.22054555l33.58635559 34.76547325 235.10508581-233.92656484-235.10508581-233.92656486-33.58635559 34.76547328 197.98316735 199.1616883z"  horiz-adv-x="1024" />

    
    <glyph glyph-name="huiyuan" unicode="&#58644;" d="M877.909 593.7149999999999c-28.763 0-52.065-23.301-52.065-52.065 0-7.282 1.456-14.199 4.127-20.511l-169.665-70.39-119.299 204.982c13.593 9.467 22.452 25.122 22.452 42.841 0 28.763-23.301 52.065-52.065 52.065s-52.065-23.301-52.065-52.065c0-17.598 8.738-33.132 22.087-42.598L349.01 450.87l-154.738 69.298c2.913 6.554 4.611 13.714 4.611 21.36 0 28.763-23.301 52.065-52.065 52.065s-52.307-23.18-52.307-51.943c0-28.399 22.695-51.458 50.973-52.065l80.706-347.948c3.035-13.229 14.806-22.574 28.399-22.574h513.244c13.593 0 25.364 9.345 28.399 22.574l80.828 347.948h0.85c28.763 0 52.065 23.301 52.065 52.065s-23.301 52.065-52.065 52.065zM744.774 177.31899999999996H277.769l-62.501 269.548 132.65-59.468c13.107-5.825 28.641-1.334 36.409 10.801l125.732 194.909 112.746-193.695c7.282-12.622 22.816-17.84 36.287-12.257l148.79 61.774-63.109-271.611z m17.597-100.974l-502.201-0.122c-16.142 0-29.127-12.986-29.127-29.127s12.986-29.127 29.127-29.127l502.201 0.122c16.142 0 29.127 12.986 29.127 29.127s-12.986 29.127-29.127 29.127z"  horiz-adv-x="1024" />

    
    <glyph glyph-name="xiangji" unicode="&#58928;" d="M877.269 811.134H775.765c-2.539 5.845-13.163 30.272-18.219 40.811C742.549 883.262 733.375 895.977 702.634 895.977H324.117c-30.123 0-43.243-12.245-61.035-57.045-4.096-10.304-10.197-23.723-12.053-27.819H146.73c-57.365 0-104.064-46.635-104.064-103.957v-475.243c0-57.323 46.677-103.936 104.064-103.936h730.539c57.365 0 104.064 46.635 104.064 103.936V707.156c0 57.365-46.677 103.979-104.064 103.979zM80.896 707.177c0 36.245 29.525 65.792 65.835 65.792h112.085c13.888 0 18.581 6.208 21.568 12.928 5.376 12.117 9.088 20.992 12.651 29.568 1.963 4.736 3.925 9.365 6.101 14.507 0.427 0.981 0.875 2.133 1.365 3.413 3.584 9.152 9.579 24.448 23.616 24.448h377.259c12.309 0 16.213-9.045 19.669-17.003l0.661-1.536c2.325-5.248 5.824-13.163 9.451-21.291 6.037-13.589 12.288-27.605 14.144-32.085 3.221-7.723 10.624-12.928 18.411-12.928h113.536c36.309 0 65.835-29.547 65.835-65.792v-475.243c0-36.245-29.525-65.771-65.835-65.771H146.709c-36.309 0-65.835 29.525-65.835 65.771V707.176zM512 255.998c117.632 0 213.333 95.701 213.333 213.333S629.632 682.664 512 682.664s-213.333-95.701-213.333-213.333S394.368 255.998 512 255.998z m0 389.675c97.216 0 176.299-79.104 176.299-176.341 0-97.216-79.104-176.32-176.299-176.32s-176.299 79.104-176.299 176.32c0 97.237 79.083 176.341 176.299 176.341zM787.115 644.521h47.701c10.539 0 19.115 8.533 19.115 19.093 0 10.496-8.576 19.072-19.115 19.072h-47.701c-10.539 0-19.115-8.555-19.115-19.072 0-10.56 8.576-19.093 19.115-19.093z"  horiz-adv-x="1024" />

    
    <glyph glyph-name="daipingjia" unicode="&#58933;" d="M691.2 755.2c0-21.208-17.192-38.4-38.4-38.4H153.6a25.52 25.52 0 0 1-18.102-7.498A25.52 25.52 0 0 1 128 691.2V256a25.52 25.52 0 0 1 7.498-18.102A25.52 25.52 0 0 1 153.6 230.4h234.875a102.4 102.4 0 0 0 60.23-19.585L601.6 99.618V179.2c0 28.277 22.923 51.2 51.2 51.2h217.6a25.52 25.52 0 0 1 18.102 7.498A25.52 25.52 0 0 1 896 256V691.2a25.52 25.52 0 0 1-7.498 18.102A25.52 25.52 0 0 1 870.4 716.8h-64c-21.208 0-38.4 17.192-38.4 38.4s17.192 38.4 38.4 38.4h64c56.554 0 102.4-45.846 102.4-102.4V256c0-56.554-45.846-102.4-102.4-102.4h-192v-154.527c0-14.139-11.462-25.6-25.6-25.6a25.6 25.6 0 0 0-15.057 4.896L396.8 153.6H153.6c-56.554 0-102.4 45.846-102.4 102.4V691.2c0 56.554 45.846 102.4 102.4 102.4h499.2c21.208 0 38.4-17.192 38.4-38.4zM294.4 614.4h179.2c21.208 0 38.4-17.192 38.4-38.4s-17.192-38.4-38.4-38.4H294.4c-21.208 0-38.4 17.192-38.4 38.4s17.192 38.4 38.4 38.4z m0-179.2h435.2c21.208 0 38.4-17.192 38.4-38.4s-17.192-38.4-38.4-38.4H294.4c-21.208 0-38.4 17.192-38.4 38.4s17.192 38.4 38.4 38.4z"  horiz-adv-x="1024" />

    
    <glyph glyph-name="huishouziliao" unicode="&#58655;" d="M822.9 259.6V687.2L621 831.7H201.1v-572H64.3v-323.3h895.3V259.6H822.9z m-572 522.3h354.2l168.1-120.3v-402H250.9V781.9z m659-795.8H114.1V209.9h795.8v-223.8zM508.8 437.4c-43.3-7.3-84.4 22.1-91.6 65.4-4.6 27.6 5.8 55.9 27.2 74 0.3 0.3 0.5 0.7 0.8 1 1.3 1.2 2.2 2.6 3.2 4.1 0.9 1.2 1.8 2.4 2.4 3.8 0.7 1.5 0.9 3 1.3 4.6 0.4 1.5 0.8 3 0.9 4.6 0.1 1.5-0.3 3-0.5 4.5-0.2 1.7-0.4 3.4-1.1 5-0.2 0.4-0.1 0.8-0.3 1.3-0.5 1.2-1.4 2-2.1 3-0.6 1.1-0.9 2.3-1.8 3.2-0.3 0.3-0.7 0.5-1 0.8-1.2 1.3-2.6 2.2-4.1 3.2-1.2 0.9-2.4 1.8-3.7 2.4-1.5 0.7-3.1 1-4.8 1.4-1.5 0.3-2.8 0.8-4.3 0.8-1.6 0.1-3.1-0.3-4.8-0.5-1.6-0.2-3.2-0.4-4.8-1-0.4-0.2-0.9-0.1-1.3-0.3L328 579.9c-12.6-5.4-18.5-20-13.1-32.7 4-9.4 13.2-15.1 22.9-15.1 3.3 0 6.6 0.7 9.8 2l21.8 9.3c-3.5-15.9-4.1-32.5-1.3-48.9 10.6-63.1 65.5-108 127.5-108 7 0 14.2 0.6 21.4 1.8 13.5 2.3 22.7 15.1 20.4 28.6-2.2 13.6-14.9 22.7-28.6 20.5zM679.3 500.7l-38.5-11c16.2 55.8-6.6 117.7-59.1 148-20.1 11.6-43.3 17.7-66.2 17.3-13.7-0.2-24.7-11.4-24.6-25.2 0.2-13.6 11.3-24.6 24.9-24.6h0.3c14.1 0.1 28.3-3.5 40.7-10.7 38-22 51.1-70.7 29.1-108.7-4.1-7.1-9.2-13.5-15.2-19-0.9-0.8-1.3-2-2.1-2.9-1.1-1.4-2.3-2.7-3.1-4.3-0.7-1.5-1-3-1.5-4.5-0.4-1.5-1-3-1.1-4.6-0.2-1.8 0.2-3.6 0.4-5.4 0.2-1.2-0.1-2.3 0.3-3.5 0.1-0.3 0.3-0.5 0.4-0.7 0.3-0.9 0.8-1.7 1.2-2.6 0.9-2 1.9-3.8 3.3-5.4 0.3-0.3 0.4-0.8 0.7-1.1 0.4-0.4 0.9-0.6 1.4-1 1.7-1.6 3.6-3 5.7-4 0.8-0.4 1.5-0.9 2.3-1.2 2.8-1.1 5.8-1.9 9-1.9 2.3 0 4.6 0.3 6.8 1l98.6 28.2c13.2 3.8 20.9 17.5 17.1 30.7-3.9 13.2-17.6 20.9-30.8 17.1z"  horiz-adv-x="1024" />

    
    <glyph glyph-name="zanb" unicode="&#59308;" d="M653.824 551.168h211.626667c60.672 0 94.549333-46.122667 94.506666-122.325333l-0.170666-2.048-44.288-370.218667c-0.256-66.389333-52.352-120.576-116.864-120.576H128a21.333333 21.333333 0 0 0-21.333333 21.333333V483.242667a21.333333 21.333333 0 0 0 21.333333 21.333333h189.866667c36.693333 109.952 64.554667 190.122667 77.482666 221.056 27.690667 66.218667 54.954667 93.738667 106.752 104.96a66.133333 66.133333 0 0 0 13.866667 1.408c38.144 0 86.357333-26.496 116.48-66.816 33.92-45.354667 47.274667-106.368 28.885333-182.741333l-4.864-20.352-2.645333-10.922667zM149.333333-21.333333h649.301334c40.576 0 74.026667 34.816 74.368 80.512l44.330666 371.456v-0.512c0 53.674667-18.133333 78.378667-51.882666 78.378666H626.773333a21.333333 21.333333 0 0 0-20.778666 26.282667l8.96 37.333333 4.906666 20.309334c15.36 63.829333 4.821333 111.872-21.589333 147.2-22.4 29.994667-58.282667 49.706667-82.304 49.706666a23.978667 23.978667 0 0 1-4.864-0.426666c-36.394667-7.893333-53.632-25.258667-76.373333-79.744-12.928-30.848-42.666667-116.736-81.322667-232.917334a21.333333 21.333333 0 0 0-22.698667-14.421333 15.232 15.232 0 0 1-1.621333 0.085333H149.333333V-21.333333zM298.666667 490.666667h42.666666V-42.666667H298.666667z"  horiz-adv-x="1024" />

    
    <glyph glyph-name="denglu" unicode="&#58629;" d="M613.637 313.95399999999995v37.6c87.787 39.306 149.22 127.002 149.22 229.361 0 138.966-112.702 251.667-251.667 251.667-139.057 0-251.759-112.701-251.759-251.667 0-102.358 61.343-190.055 149.22-229.541v-37.42c-166.939-45.242-290.344-196.44-290.344-377.682H903.98c0 181.332-123.405 332.44-290.343 377.682z"  horiz-adv-x="1024" />

    
    <glyph glyph-name="chong" unicode="&#58935;" d="M113.777778 896h796.444444a113.777778 113.777778 0 0 0 113.777778-113.777778v-796.444444a113.777778 113.777778 0 0 0-113.777778-113.777778H113.777778a113.777778 113.777778 0 0 0-113.777778 113.777778V782.222222a113.777778 113.777778 0 0 0 113.777778 113.777778z m397.539555-179.086222l-52.565333-8.192c13.653333-23.210667 25.941333-48.469333 36.864-75.776H230.741333v-45.738667H426.666667c-55.296-82.602667-100.352-133.12-134.485334-152.234667a62.236444 62.236444 0 0 0-10.922666-4.096l11.605333-44.373333c141.312 7.509333 272.384 17.749333 393.216 30.72 17.749333-25.258667 33.450667-49.834667 47.786667-74.410667l40.96 28.672c-31.402667 51.882667-76.458667 111.957333-135.168 181.589334l-38.229334-23.893334c19.797333-24.576 38.229333-48.469333 55.978667-72.362666a5483.633778 5483.633778 0 0 0-299.690667-25.258667c34.133333 30.72 74.410667 82.602667 120.149334 155.648h315.392v45.738667H544.768a859.989333 859.989333 0 0 1-33.450667 83.968zM393.898667 361.244444c-4.096-69.632-19.114667-120.149333-45.056-151.552-26.624-31.402667-70.997333-58.709333-133.802667-81.92l30.72-38.912c68.949333 27.989333 118.101333 61.44 148.138667 99.669334 27.306667 36.181333 43.008 93.525333 47.786666 172.714666h-47.786666z m333.141333-262.144c24.576 0.682667 43.008 6.826667 56.661333 18.432 13.653333 14.336 23.893333 55.978667 30.037334 124.928l-45.056 13.653334c-3.413333-57.344-10.922667-90.794667-21.845334-100.352a52.167111 52.167111 0 0 0-32.768-10.24h-79.872c-23.893333 0-35.498667 10.922667-35.498666 31.402666V370.119111h-48.469334v-201.386667c0-46.421333 23.210667-69.632 70.314667-69.632h106.496z"  horiz-adv-x="1024" />

    
    <glyph glyph-name="weixin" unicode="&#58912;" d="M513.536 859.136C250.88 859.136 37.888 646.144 37.888 384s212.992-475.648 475.648-475.648 475.648 212.992 475.648 475.648-212.992 475.136-475.648 475.136z m0-931.328c-251.904 0-456.192 204.288-456.192 456.192s204.288 455.68 456.192 455.68 456.192-204.288 456.192-456.192-204.288-455.68-456.192-455.68zM644.608 473.6c-109.056 0-194.56-74.752-194.56-166.4s86.016-166.4 194.56-166.4c23.04 0 45.568 5.632 68.608 11.264l62.976-34.304-17.408 57.344c46.08 34.304 80.384 80.384 80.384 131.584-0.512 92.16-91.648 166.912-194.56 166.912z m-63.488-137.728c-11.264 0-23.04 11.264-23.04 23.04 0 11.264 11.264 23.04 23.04 23.04 17.408 0 28.672-11.264 28.672-23.04s-11.264-23.04-28.672-23.04z m125.952 0c-11.264 0-22.528 11.264-22.528 23.04 0 11.264 11.264 23.04 22.528 23.04 17.408 0 28.672-11.264 28.672-23.04s-11.264-23.04-28.672-23.04zM625.664 489.984c7.68 0 14.848-0.512 22.016-1.536-19.968 92.16-118.272 160.768-230.912 160.768-125.952 0-228.864-86.016-228.864-194.56 0-62.976 34.304-114.688 91.648-154.624l-23.04-69.12 79.872 39.936c28.672-5.632 51.712-11.264 80.384-11.264 7.168 0 14.336 0.512 21.504 1.024-4.608 15.36-7.168 31.232-7.168 48.128 0 99.84 86.016 181.248 194.56 181.248z m-122.88 61.952c17.408 0 28.672-11.264 28.672-28.672 0-17.408-11.264-28.672-28.672-28.672-17.408 0-34.304 11.264-34.304 28.672 0 17.408 16.896 28.672 34.304 28.672zM342.528 494.592c-16.896 0-34.304 11.264-34.304 28.672 0 17.408 17.408 28.672 34.304 28.672 17.408 0 28.672-11.264 28.672-28.672 0-16.896-11.776-28.672-28.672-28.672z"  horiz-adv-x="1024" />

    


  </font>
</defs>
</svg>
